<?xml version="1.0" encoding="UTF-8"?>
<svg version="1.1" viewBox="0 0 683.28 600.33" xmlns="http://www.w3.org/2000/svg">
 <g transform="translate(-100.94 -71.785)">
  <g transform="matrix(-.2115 -.46916 -.46916 .2115 772.13 886.95)" fill="#000080">
   <path d="m1424.2 781.35c-68.296 4.545-86.982-76.181-88.371-129.53-18.275-45.463-2.4351-126.5 58.252-75.919 48.54 34.07 112.32 84.406 97.56 151.46-8.8535 29.024-34.96 56.606-67.441 53.988zm-619.46-128.12c-64.28-10.108 38.97-116.12 34.322-65.148-7.3831 22.233-3.2838 60.989-34.322 65.148zm412.9-28.098c-69.73-9.128-50.227-91.555-44.99-140.4 9.7282-39.932-19.769-79.833-56.101-58-37.15-52.847-91.009 9.293-77.879 57.445-21.018 59.808-78.535-4.5145-31.069-33.818 67.691-35.362-20.556-111.38-54.706-65.525 20.163 61.514-47.981 46.022-60.835 3.8116-36.237-50.184-52.954 12.887-79.732 29.149-77.185-28.603 86.195-67.751 20.19-121.57-56.175-57.633-71.106 73.093-129.88 62.079-75.5 4.0205-52.307-113.51 14.683-96.029 59.004 37.893 124.46-30.797 76.146-84.201-56.435-32.835 50.441-97.528-30.248-115.63-59.601-11.7-113.42-59.229-176.94-40.519-51.802 11.804-126.06 3.3854-142.82-56.272-15.196-65.807 68.555-115.44 123.29-82.708 64.538 30.456 57.117 131.87 132.52 146.61 68.231 16.759 153.73 14.384 199.49-47.016 46.869-35.997 31.196-101.54-11.231-133.24-56.447-29.079 5.3164-100.34 27.614-33.548 10.223 46.65 17.382 109.27 76.432 89.718 63.184-15.514-30.035-88.68 14.885-90.066-0.2102 46.238 67.994 75.573 63.25 12.424 12.638-52.581-68.45-133.36-3.83-163.56 48.11 34.5-15.565 112.07 20.136 162.22 23.279 21.156 75.866 8.3211 92.182 52.842 76.664 8.0474-24.764-84.85 32.124-111.71 55.536-37.241 117.85 33.025 57.686 77.642-47.235 76.299 83.953-21.671 66.861 46.278-19.218 59.765 35.356 121.25 88.293 68.04 63.928-44.589 80.575-142.73 164.04-160.62 63.184-21.793 103.79 58.395 70.494 107.32-28.72 50.708-95.477 53.198-146.52 44.362-53.091 2.4197-116.32 21.841-147.99 66.016 34.936 43.684 92.262-16.67 137.54-3.7879 66.025 48.288-44.149 85.456-83.365 48.843-42.932-26.001-93.105 19.247-35.048 44.728 47.453 29.83 67.186 99.751 25.492 142.67-33.342 39.785-110.06 43.794-112.81-21.441-14.277-76.637-135.42-17.565-65.44 31.557 42.195 21.017 135.38 30.123 128.63 90.573-28.656 22.79-33.504 72.099-23.168 88.273-39.492-33.859-132.4-62.555-147.95 7.9068 5.4967 60.771 113.79 90.153 73.35 159.31-10.3 12.97-26.433 19.635-42.762 19.842zm276.34-65.81c-64.364 4.5936-90.467-65.296-132.05-101.32 19.639 8.3528 85.851 22.34 121.76 22.188 41.513 8.0006 71.429 73.913 10.288 79.13zm-52.07-732.36c-74.474-8.8216 23.441-105.53 33.024-31.489 2.2177 18.874-15.583 31.973-33.024 31.489zm-758.81-113.4c-59.073 7.5168-11.932-79.487 15.491-24.738 8.3316 11.582-4.1451 23.65-15.491 24.738z" fill="#000080"/>
  </g>
 </g>
</svg>
