<?xml version="1.0" encoding="UTF-8"?>
<svg width="551.54mm" height="306.41mm" version="1.1" viewBox="0 0 1954.2857 1085.7144" xmlns="http://www.w3.org/2000/svg" xmlns:xlink="http://www.w3.org/1999/xlink">
 <defs>
  <linearGradient id="eb" x1="232.59" x2="252.84" y1="1097" y2="1400.1" gradientTransform="matrix(.14005 0 0 .14005 -881.58 237.83)" gradientUnits="userSpaceOnUse" xlink:href="#dg"/>
  <linearGradient id="dg">
   <stop stop-color="#212121" offset="0"/>
   <stop stop-color="#33691e" stop-opacity="0" offset="1"/>
  </linearGradient>
  <clipPath id="fj">
   <path d="m78.835-258.7c-247.73-1e-3 -448.55 198.9-448.55 444.26-8.0766 293.07 308.84 526.12 325.03 828.28 7.6e-4 43.273 35.332 78.353 123.52 78.353 88.192 0 129.58-35.08 129.59-78.353 32.827-300.99 318.21-535.21 318.96-828.28-2e-4 -245.36-200.82-444.26-448.55-444.26z" fill="#c51162" fill-rule="evenodd"/>
  </clipPath>
  <clipPath id="fi">
   <path d="m78.835-258.7c-247.73-1e-3 -448.55 198.9-448.55 444.26-8.0766 293.07 308.84 526.12 325.03 828.28 7.6e-4 43.273 35.332 78.353 123.52 78.353 88.192 0 129.58-35.08 129.59-78.353 32.827-300.99 318.21-535.21 318.96-828.28-2e-4 -245.36-200.82-444.26-448.55-444.26z" fill="#c51162" fill-rule="evenodd"/>
  </clipPath>
  <clipPath id="fh">
   <path d="m78.835-258.7c-247.73-1e-3 -448.55 198.9-448.55 444.26-8.0766 293.07 308.84 526.12 325.03 828.28 7.6e-4 43.273 35.332 78.353 123.52 78.353 88.192 0 129.58-35.08 129.59-78.353 32.827-300.99 318.21-535.21 318.96-828.28-2e-4 -245.36-200.82-444.26-448.55-444.26z" fill="#c51162" fill-rule="evenodd"/>
  </clipPath>
  <clipPath id="fg">
   <path d="m78.835-258.7c-247.73-1e-3 -448.55 198.9-448.55 444.26-8.0766 293.07 308.84 526.12 325.03 828.28 7.6e-4 43.273 35.332 78.353 123.52 78.353 88.192 0 129.58-35.08 129.59-78.353 32.827-300.99 318.21-535.21 318.96-828.28-2e-4 -245.36-200.82-444.26-448.55-444.26z" fill="#c51162" fill-rule="evenodd"/>
  </clipPath>
  <clipPath id="ff">
   <path d="m78.835-258.7c-247.73-1e-3 -448.55 198.9-448.55 444.26-8.0766 293.07 308.84 526.12 325.03 828.28 7.6e-4 43.273 35.332 78.353 123.52 78.353 88.192 0 129.58-35.08 129.59-78.353 32.827-300.99 318.21-535.21 318.96-828.28-2e-4 -245.36-200.82-444.26-448.55-444.26z" fill="#c51162" fill-rule="evenodd"/>
  </clipPath>
  <clipPath id="fe">
   <path d="m78.835-258.7c-247.73-1e-3 -448.55 198.9-448.55 444.26-8.0766 293.07 308.84 526.12 325.03 828.28 7.6e-4 43.273 35.332 78.353 123.52 78.353 88.192 0 129.58-35.08 129.59-78.353 32.827-300.99 318.21-535.21 318.96-828.28-2e-4 -245.36-200.82-444.26-448.55-444.26z" fill="#c51162" fill-rule="evenodd"/>
  </clipPath>
  <linearGradient id="ed" x1="84.739" x2="129.41" y1="-495.19" y2="252.32" gradientUnits="userSpaceOnUse" xlink:href="#dk"/>
  <linearGradient id="dk">
   <stop stop-color="#fffde7" offset="0"/>
   <stop stop-color="#fffde7" stop-opacity="0" offset="1"/>
  </linearGradient>
  <clipPath id="fd">
   <path d="m78.835-258.7c-247.73-1e-3 -448.55 198.9-448.55 444.26-8.0766 293.07 308.84 526.12 325.03 828.28 7.6e-4 43.273 35.332 78.353 123.52 78.353 88.192 0 129.58-35.08 129.59-78.353 32.827-300.99 318.21-535.21 318.96-828.28-2e-4 -245.36-200.82-444.26-448.55-444.26z" fill="#c51162" fill-rule="evenodd"/>
  </clipPath>
  <linearGradient id="ec" x1="127.89" x2="207.79" y1="-838.65" y2="72.894" gradientTransform="matrix(1.7139 0 0 1.8883 -305.85 377.31)" gradientUnits="userSpaceOnUse" xlink:href="#de"/>
  <linearGradient id="de">
   <stop stop-color="#c51162" offset="0"/>
   <stop stop-color="#c51162" stop-opacity="0" offset="1"/>
  </linearGradient>
  <clipPath id="fc">
   <path d="m78.835-258.7c-247.73-1e-3 -448.55 198.9-448.55 444.26-8.0766 293.07 308.84 526.12 325.03 828.28 7.6e-4 43.273 35.332 78.353 123.52 78.353 88.192 0 129.58-35.08 129.59-78.353 32.827-300.99 318.21-535.21 318.96-828.28-2e-4 -245.36-200.82-444.26-448.55-444.26z" fill="#c51162" fill-rule="evenodd"/>
  </clipPath>
  <linearGradient id="ee" x1="81.41" x2="102.77" y1="-1032" y2="134.62" gradientTransform="matrix(1.2135 0 0 1.4075 -18.409 300.44)" gradientUnits="userSpaceOnUse" xlink:href="#dk"/>
  <clipPath id="fb">
   <path d="m78.835-258.7c-247.73-1e-3 -448.55 198.9-448.55 444.26-8.0766 293.07 308.84 526.12 325.03 828.28 7.6e-4 43.273 35.332 78.353 123.52 78.353 88.192 0 129.58-35.08 129.59-78.353 32.827-300.99 318.21-535.21 318.96-828.28-2e-4 -245.36-200.82-444.26-448.55-444.26z" fill="#c51162" fill-rule="evenodd"/>
  </clipPath>
  <linearGradient id="ef" x1="81.41" x2="102.77" y1="-1032" y2="134.62" gradientTransform="matrix(1.18 -.28324 .32852 1.3686 -202.9 264.32)" gradientUnits="userSpaceOnUse">
   <stop stop-color="#ff4967" offset="0"/>
   <stop stop-color="#fffde7" stop-opacity="0" offset="1"/>
  </linearGradient>
  <clipPath id="fa">
   <path d="m78.835-258.7c-247.73-1e-3 -448.55 198.9-448.55 444.26-8.0766 293.07 308.84 526.12 325.03 828.28 7.6e-4 43.273 35.332 78.353 123.52 78.353 88.192 0 129.58-35.08 129.59-78.353 32.827-300.99 318.21-535.21 318.96-828.28-2e-4 -245.36-200.82-444.26-448.55-444.26z" fill="#c51162" fill-rule="evenodd"/>
  </clipPath>
  <linearGradient id="eg" x1="617.19" x2="102.77" y1="-705.63" y2="134.62" gradientTransform="matrix(1.18 -.28324 .32852 1.3686 100.15 256.24)" gradientUnits="userSpaceOnUse">
   <stop stop-color="#ffea00" offset="0"/>
   <stop stop-color="#fffde7" stop-opacity="0" offset="1"/>
  </linearGradient>
  <clipPath id="ez">
   <path d="m78.835-258.7c-247.73-1e-3 -448.55 198.9-448.55 444.26-8.0766 293.07 308.84 526.12 325.03 828.28 7.6e-4 43.273 35.332 78.353 123.52 78.353 88.192 0 129.58-35.08 129.59-78.353 32.827-300.99 318.21-535.21 318.96-828.28-2e-4 -245.36-200.82-444.26-448.55-444.26z" fill="#c51162" fill-rule="evenodd"/>
  </clipPath>
  <linearGradient id="eh" x1="127.89" x2="207.79" y1="-838.65" y2="-23.105" gradientTransform="matrix(2.0547 0 0 2.2024 -398.62 246.54)" gradientUnits="userSpaceOnUse" xlink:href="#de"/>
  <clipPath id="ey">
   <path d="m78.835-258.7c-247.73-1e-3 -448.55 198.9-448.55 444.26-8.0766 293.07 308.84 526.12 325.03 828.28 7.6e-4 43.273 35.332 78.353 123.52 78.353 88.192 0 129.58-35.08 129.59-78.353 32.827-300.99 318.21-535.21 318.96-828.28-2e-4 -245.36-200.82-444.26-448.55-444.26z" fill="#c51162" fill-rule="evenodd"/>
  </clipPath>
  <linearGradient id="ei" x1="127.89" x2="213.01" y1="-838.65" y2="12.98" gradientTransform="matrix(1.5499 0 0 1.8883 -265.21 -638)" gradientUnits="userSpaceOnUse" xlink:href="#de"/>
  <clipPath id="ex">
   <path d="m78.835 258.7c-247.73 1e-3 -448.55-198.9-448.55-444.26-8.0766-293.07 308.84-526.12 325.03-828.28 7.6e-4 -43.273 35.332-78.353 123.52-78.353 88.192 0 129.58 35.08 129.59 78.353 32.827 300.99 318.21 535.21 318.96 828.28-2e-4 245.36-200.82 444.26-448.55 444.26z" fill="#c51162" fill-rule="evenodd"/>
  </clipPath>
  <linearGradient id="ej" x1="127.89" x2="207.79" y1="-838.65" y2="72.894" gradientTransform="matrix(1.7139 0 0 1.8883 -632.82 349.59)" gradientUnits="userSpaceOnUse" xlink:href="#de"/>
  <clipPath id="ew">
   <path d="m146.14-227.55c-238.41-67.293-485.72 69.578-552.36 305.71-87.381 279.86 154.32 590.23 87.815 885.42-11.754 41.646 12.72 85.004 97.597 108.96 84.876 23.956 134.24 1.4395 146-40.206 113.35-280.76 451.63-428.65 531.96-710.49 66.648-236.13-72.595-482.1-311.01-549.4z" fill="#c51162" fill-rule="evenodd"/>
  </clipPath>
  <linearGradient id="ek" x1="127.89" x2="207.79" y1="-838.65" y2="72.894" gradientTransform="matrix(1.7139 0 0 1.8883 -158.52 617.81)" gradientUnits="userSpaceOnUse">
   <stop stop-color="#a0f" offset="0"/>
   <stop stop-color="#c51162" stop-opacity="0" offset="1"/>
  </linearGradient>
  <clipPath id="ev">
   <path d="m146.14-227.55c-238.41-67.293-485.72 69.578-552.36 305.71-87.381 279.86 154.32 590.23 87.815 885.42-11.754 41.646 12.72 85.004 97.597 108.96 84.876 23.956 134.24 1.4395 146-40.206 113.35-280.76 451.63-428.65 531.96-710.49 66.648-236.13-72.595-482.1-311.01-549.4z" fill="#c51162" fill-rule="evenodd"/>
  </clipPath>
  <radialGradient id="er" cx="84.061" cy="238.08" r="466.92" gradientTransform="matrix(1.3855 0 0 .94847 147.59 46.554)" gradientUnits="userSpaceOnUse">
   <stop stop-color="#fff" offset="0"/>
   <stop stop-color="#fff" stop-opacity="0" offset="1"/>
  </radialGradient>
  <clipPath id="eu">
   <path d="m78.835-258.7c-247.73-1e-3 -448.55 198.9-448.55 444.26-8.0766 293.07 308.84 526.12 325.03 828.28 7.6e-4 43.273 35.332 78.353 123.52 78.353 88.192 0 129.58-35.08 129.59-78.353 32.827-300.99 318.21-535.21 318.96-828.28-2e-4 -245.36-200.82-444.26-448.55-444.26z" fill="#c51162" fill-rule="evenodd"/>
  </clipPath>
  <radialGradient id="es" cx="84.061" cy="238.08" r="466.92" gradientTransform="matrix(1.3855 0 0 .94847 199.02 -319.16)" gradientUnits="userSpaceOnUse">
   <stop stop-color="#ffea00" offset="0"/>
   <stop stop-color="#fff" stop-opacity="0" offset="1"/>
  </radialGradient>
  <clipPath id="et">
   <path d="m78.835-258.7c-247.73-1e-3 -448.55 198.9-448.55 444.26-8.0766 293.07 308.84 526.12 325.03 828.28 7.6e-4 43.273 35.332 78.353 123.52 78.353 88.192 0 129.58-35.08 129.59-78.353 32.827-300.99 318.21-535.21 318.96-828.28-2e-4 -245.36-200.82-444.26-448.55-444.26z" fill="#c51162" fill-rule="evenodd"/>
  </clipPath>
  <linearGradient id="el" x1="86.873" x2="86.873" y1="1292.8" y2="1028.1" gradientUnits="userSpaceOnUse">
   <stop offset="0"/>
   <stop stop-opacity="0" offset="1"/>
  </linearGradient>
  <linearGradient id="ea" x1="232.59" x2="252.84" y1="1097" y2="1400.1" gradientTransform="matrix(.29891 0 0 .40939 -726.35 -127.1)" gradientUnits="userSpaceOnUse" xlink:href="#dg"/>
  <linearGradient id="dz" x1="379.2" x2="466.05" y1="209.08" y2="377.65" gradientTransform="matrix(.64447 0 0 .64447 -826.52 -267.31)" gradientUnits="userSpaceOnUse" xlink:href="#dj"/>
  <linearGradient id="dj">
   <stop stop-color="#f6ee2c" offset="0"/>
   <stop stop-color="#f6ee2c" stop-opacity="0" offset="1"/>
  </linearGradient>
  <linearGradient id="dy" x1="1938" x2="1789.3" y1="481.28" y2="872.04" gradientTransform="matrix(-.11183 0 0 .11183 44.606 -166.67)" gradientUnits="userSpaceOnUse">
   <stop stop-color="#1de9b6" offset="0"/>
   <stop stop-color="#12b972" offset="1"/>
  </linearGradient>
  <linearGradient id="dx" x1="252.86" x2="258.54" y1="341.44" y2="441.53" gradientTransform="matrix(.4283 0 0 .4283 -328.98 -276.78)" gradientUnits="userSpaceOnUse" xlink:href="#dh"/>
  <linearGradient id="dh">
   <stop stop-color="#212121" offset="0"/>
   <stop stop-color="#212121" stop-opacity="0" offset="1"/>
  </linearGradient>
  <linearGradient id="dw" x1="2371.3" x2="2089.2" y1="711.55" y2="1322.8" gradientTransform="matrix(-.11183 0 0 .11183 44.606 -166.67)" gradientUnits="userSpaceOnUse" xlink:href="#di"/>
  <linearGradient id="di">
   <stop stop-color="#ffeb62" offset="0"/>
   <stop stop-color="#f57f17" offset="1"/>
  </linearGradient>
  <linearGradient id="dv" x1="781.1" x2="1001.4" y1="380.14" y2="317.28" gradientTransform="matrix(.64447 0 0 .64447 -826.52 -267.31)" gradientUnits="userSpaceOnUse" xlink:href="#dj"/>
  <linearGradient id="du" x1="1843.8" x2="1866.8" y1="1031.2" y2="470.17" gradientTransform="matrix(-.11183 0 0 .11183 44.606 -166.67)" gradientUnits="userSpaceOnUse" xlink:href="#di"/>
  <linearGradient id="dt" x1="918.99" x2="1130.6" y1="23.601" y2="496.35" gradientTransform="matrix(.4283 0 0 .4283 -623.28 -203.57)" gradientUnits="userSpaceOnUse" xlink:href="#dh"/>
  <linearGradient id="ds" x1="232.59" x2="252.84" y1="1097" y2="1400.1" gradientTransform="matrix(.58016 0 0 .58016 -327.78 -185.67)" gradientUnits="userSpaceOnUse" xlink:href="#dg"/>
  <radialGradient id="eq" cx="163.86" cy="596.39" r="223.24" gradientTransform="matrix(-.22704 1.4161 -1.6369 -.26244 733.11 -119.36)" gradientUnits="userSpaceOnUse">
   <stop stop-color="#ddc417" offset="0"/>
   <stop stop-color="#9ed017" offset=".25384"/>
   <stop stop-color="#92c417" offset=".50893"/>
   <stop stop-color="#33691e" offset="1"/>
  </radialGradient>
  <linearGradient id="dr" x1="-105.13" x2="-114.88" y1="523.71" y2="631.38" gradientTransform="matrix(.64447 0 0 .64447 -389.89 -382.3)" gradientUnits="userSpaceOnUse">
   <stop stop-color="#eeff41" offset="0"/>
   <stop stop-color="#efcc00" offset="1"/>
  </linearGradient>
  <linearGradient id="dq" x1="-231.88" x2="-229.1" y1="538.66" y2="632.24" gradientTransform="matrix(.64447 0 0 .64447 -388.28 -382.07)" gradientUnits="userSpaceOnUse">
   <stop stop-color="#424242" offset="0"/>
   <stop stop-color="#424242" stop-opacity="0" offset="1"/>
  </linearGradient>
  <linearGradient id="dp" x1="307.58" x2="363.46" y1="995.66" y2="2488.8" gradientTransform="translate(-474.26 -639.95)" gradientUnits="userSpaceOnUse" xlink:href="#df"/>
  <linearGradient id="df">
   <stop stop-color="#ddc417" offset="0"/>
   <stop stop-color="#9ed017" offset=".084716"/>
   <stop stop-color="#33691e" offset="1"/>
  </linearGradient>
  <linearGradient id="do" x1="-495.99" x2="-522.84" y1="1006.1" y2="1790" gradientTransform="translate(-474.26 -639.95)" gradientUnits="userSpaceOnUse" xlink:href="#df"/>
  <linearGradient id="dn" x1="-199.68" x2="314.15" y1="514.01" y2="675.18" gradientTransform="matrix(.64447 0 0 .64447 -388.28 -382.07)" gradientUnits="userSpaceOnUse">
   <stop stop-color="#f8ed3a" offset="0"/>
   <stop stop-color="#f0fa3b" offset=".13072"/>
   <stop stop-color="#ffdd18" offset="1"/>
  </linearGradient>
  <radialGradient id="ep" cx="-334.35" cy="614.98" r="164.65" gradientTransform="matrix(-1.0625 .14975 -.13016 -.92347 -843.18 508.24)" gradientUnits="userSpaceOnUse">
   <stop stop-color="#c7dd17" offset="0"/>
   <stop stop-color="#9ed017" offset=".22704"/>
   <stop stop-color="#92c417" offset=".36669"/>
   <stop stop-color="#33691e" offset="1"/>
  </radialGradient>
  <linearGradient id="dm" x1="-162.44" x2="-159.28" y1="997.98" y2="1240.4" gradientTransform="translate(-493.27 -670.26)" gradientUnits="userSpaceOnUse" xlink:href="#df"/>
  <linearGradient id="dl" x1="605.71" x2="634.08" y1="667.24" y2="1483.6" gradientTransform="matrix(1.8839 0 0 .91176 -752.37 -394.66)" gradientUnits="userSpaceOnUse">
   <stop stop-color="#ddc417" offset="0"/>
   <stop stop-color="#9ed017" offset=".19008"/>
   <stop stop-color="#33691e" offset=".50893"/>
   <stop stop-color="#33691e" offset="1"/>
  </linearGradient>
  <linearGradient id="a" x1="-1782.9" x2="-1775.8" y1="203.22" y2="1386.2" gradientTransform="matrix(1.2214 0 0 1.1176 1788.3 -1004.1)" gradientUnits="userSpaceOnUse" xlink:href="#dd"/>
  <linearGradient id="dd">
   <stop stop-color="#68c9d9" offset="0"/>
   <stop stop-color="#73ceda" offset=".34988"/>
   <stop stop-color="#a8e6e0" offset=".52677"/>
   <stop stop-color="#b5ece2" offset=".62284"/>
   <stop stop-color="#ddf7f1" offset=".81735"/>
   <stop stop-color="#cef8e5" offset="1"/>
  </linearGradient>
  <clipPath id="fk">
   <rect x="-1401.4" y="-527.92" width="1954.3" height="1085.7" fill="url(#a)" fill-rule="evenodd"/>
  </clipPath>
  <clipPath id="fl">
   <rect x="-1401.4" y="-527.92" width="1954.3" height="1085.7" fill="url(#a)" fill-rule="evenodd"/>
  </clipPath>
  <clipPath id="fm">
   <rect x="-1401.4" y="-527.92" width="1954.3" height="1085.7" fill="url(#a)" fill-rule="evenodd"/>
  </clipPath>
  <clipPath id="fn">
   <rect x="-1401.4" y="-527.92" width="1954.3" height="1085.7" fill="url(#a)" fill-rule="evenodd"/>
  </clipPath>
  <clipPath id="fo">
   <rect x="-1401.4" y="-527.92" width="1954.3" height="1085.7" fill="url(#a)" fill-rule="evenodd"/>
  </clipPath>
  <clipPath id="fp">
   <rect x="-6753.7" y="-7003.7" width="23032" height="12796" fill="url(#em)" fill-rule="evenodd"/>
  </clipPath>
  <linearGradient id="em" x1="-1782.9" x2="-1775.8" y1="203.22" y2="1386.2" gradientTransform="matrix(14.395 0 0 13.172 30838 -12616)" gradientUnits="userSpaceOnUse" xlink:href="#dd"/>
  <clipPath id="fq">
   <rect x="-1401.4" y="-527.92" width="1954.3" height="1085.7" fill="url(#a)" fill-rule="evenodd"/>
  </clipPath>
  <clipPath id="fr">
   <rect x="-1401.4" y="-527.92" width="1954.3" height="1085.7" fill="url(#a)" fill-rule="evenodd"/>
  </clipPath>
  <clipPath id="fs">
   <rect x="-1401.4" y="-527.92" width="1954.3" height="1085.7" fill="url(#a)" fill-rule="evenodd"/>
  </clipPath>
  <clipPath id="ft">
   <rect x="-1401.4" y="-527.92" width="1954.3" height="1085.7" fill="url(#a)" fill-rule="evenodd"/>
  </clipPath>
  <clipPath id="fu">
   <rect x="-1401.4" y="-527.92" width="1954.3" height="1085.7" fill="url(#a)" fill-rule="evenodd"/>
  </clipPath>
  <clipPath id="fv">
   <rect x="-1401.4" y="-527.92" width="1954.3" height="1085.7" fill="url(#a)" fill-rule="evenodd"/>
  </clipPath>
  <clipPath id="fw">
   <rect x="-1401.4" y="-527.92" width="1954.3" height="1085.7" fill="url(#a)" fill-rule="evenodd"/>
  </clipPath>
  <clipPath id="fx">
   <rect x="-1401.4" y="-527.92" width="1954.3" height="1085.7" fill="url(#a)" fill-rule="evenodd"/>
  </clipPath>
  <clipPath id="fy">
   <rect transform="matrix(.92536 .3791 -.3791 .92536 0 0)" x="-2781.5" y="-1447.2" width="4152.8" height="2307.1" fill="url(#en)" fill-rule="evenodd"/>
  </clipPath>
  <linearGradient id="en" x1="-1782.9" x2="-1775.8" y1="203.22" y2="1386.2" gradientTransform="matrix(2.5955 0 0 2.375 3996.5 -2459.1)" gradientUnits="userSpaceOnUse" xlink:href="#dd"/>
  <clipPath id="fz">
   <rect x="-1401.4" y="-527.92" width="1954.3" height="1085.7" fill="url(#a)" fill-rule="evenodd"/>
  </clipPath>
  <clipPath id="ga">
   <rect x="-1401.4" y="-527.92" width="1954.3" height="1085.7" fill="url(#a)" fill-rule="evenodd"/>
  </clipPath>
  <clipPath id="gb">
   <rect x="-1401.4" y="-527.92" width="1954.3" height="1085.7" fill="url(#a)" fill-rule="evenodd"/>
  </clipPath>
  <clipPath id="gc">
   <rect x="-1401.4" y="-527.92" width="1954.3" height="1085.7" fill="url(#a)" fill-rule="evenodd"/>
  </clipPath>
  <clipPath id="gd">
   <rect x="-1401.4" y="-527.92" width="1954.3" height="1085.7" fill="url(#a)" fill-rule="evenodd"/>
  </clipPath>
  <clipPath id="ge">
   <rect x="-1401.4" y="-527.92" width="1954.3" height="1085.7" fill="url(#a)" fill-rule="evenodd"/>
  </clipPath>
  <clipPath id="gf">
   <rect x="-1401.4" y="-527.92" width="1954.3" height="1085.7" fill="url(#a)" fill-rule="evenodd"/>
  </clipPath>
  <clipPath id="gg">
   <rect x="-1401.4" y="-527.92" width="1954.3" height="1085.7" fill="url(#a)" fill-rule="evenodd"/>
  </clipPath>
  <clipPath id="gh">
   <rect x="-1401.4" y="-527.92" width="1954.3" height="1085.7" fill="url(#a)" fill-rule="evenodd"/>
  </clipPath>
  <clipPath id="gi">
   <rect x="-1401.4" y="-527.92" width="1954.3" height="1085.7" fill="url(#a)" fill-rule="evenodd"/>
  </clipPath>
  <clipPath id="gj">
   <rect x="-1401.4" y="-527.92" width="1954.3" height="1085.7" fill="url(#a)" fill-rule="evenodd"/>
  </clipPath>
  <clipPath id="gk">
   <rect x="-1401.4" y="-527.92" width="1954.3" height="1085.7" fill="url(#a)" fill-rule="evenodd"/>
  </clipPath>
  <clipPath id="gl">
   <rect x="-1401.4" y="-527.92" width="1954.3" height="1085.7" fill="url(#a)" fill-rule="evenodd"/>
  </clipPath>
  <clipPath id="gm">
   <rect x="-1401.4" y="-527.92" width="1954.3" height="1085.7" fill="url(#a)" fill-rule="evenodd"/>
  </clipPath>
  <clipPath id="gn">
   <rect x="-1401.4" y="-527.92" width="1954.3" height="1085.7" fill="url(#a)" fill-rule="evenodd"/>
  </clipPath>
  <clipPath id="go">
   <rect x="-1401.4" y="-527.92" width="1954.3" height="1085.7" fill="url(#a)" fill-rule="evenodd"/>
  </clipPath>
  <clipPath id="gp">
   <rect x="-1401.4" y="-527.92" width="1954.3" height="1085.7" fill="url(#a)" fill-rule="evenodd"/>
  </clipPath>
  <clipPath id="gq">
   <rect x="-1401.4" y="-527.92" width="1954.3" height="1085.7" fill="url(#a)" fill-rule="evenodd"/>
  </clipPath>
  <clipPath id="gr">
   <rect x="-1401.4" y="-527.92" width="1954.3" height="1085.7" fill="url(#a)" fill-rule="evenodd"/>
  </clipPath>
  <clipPath id="gs">
   <rect x="-1401.4" y="-527.92" width="1954.3" height="1085.7" fill="url(#a)" fill-rule="evenodd"/>
  </clipPath>
  <clipPath id="gt">
   <rect x="-1401.4" y="-527.92" width="1954.3" height="1085.7" fill="url(#a)" fill-rule="evenodd"/>
  </clipPath>
  <clipPath id="gu">
   <rect x="-1401.4" y="-527.92" width="1954.3" height="1085.7" fill="url(#a)" fill-rule="evenodd"/>
  </clipPath>
  <clipPath id="gv">
   <rect x="-1401.4" y="-527.92" width="1954.3" height="1085.7" fill="url(#a)" fill-rule="evenodd"/>
  </clipPath>
  <clipPath id="gw">
   <rect x="-1401.4" y="-527.92" width="1954.3" height="1085.7" fill="url(#a)" fill-rule="evenodd"/>
  </clipPath>
  <clipPath id="gx">
   <rect transform="matrix(.92379 .3829 -.3829 .92379 0 0)" x="-11517" y="-7220.4" width="36574" height="20319" fill="url(#eo)" fill-rule="evenodd"/>
  </clipPath>
  <linearGradient id="eo" x1="-1782.9" x2="-1775.8" y1="203.22" y2="1386.2" gradientTransform="matrix(22.858 0 0 20.916 48177 -16132)" gradientUnits="userSpaceOnUse" xlink:href="#dd"/>
  <clipPath id="gy">
   <rect x="-1401.4" y="-527.92" width="1954.3" height="1085.7" fill="url(#a)" fill-rule="evenodd"/>
  </clipPath>
  <clipPath id="gz">
   <rect x="-1401.4" y="-527.92" width="1954.3" height="1085.7" fill="url(#a)" fill-rule="evenodd"/>
  </clipPath>
  <clipPath id="ha">
   <rect x="-1401.4" y="-527.92" width="1954.3" height="1085.7" fill="url(#a)" fill-rule="evenodd"/>
  </clipPath>
  <clipPath id="hb">
   <rect x="-1401.4" y="-527.92" width="1954.3" height="1085.7" fill="url(#a)" fill-rule="evenodd"/>
  </clipPath>
  <clipPath id="hc">
   <rect x="-1401.4" y="-527.92" width="1954.3" height="1085.7" fill="url(#a)" fill-rule="evenodd"/>
  </clipPath>
  <clipPath id="hd">
   <rect x="-1401.4" y="-527.92" width="1954.3" height="1085.7" fill="url(#a)" fill-rule="evenodd"/>
  </clipPath>
  <clipPath id="he">
   <rect x="-1401.4" y="-527.92" width="1954.3" height="1085.7" fill="url(#a)" fill-rule="evenodd"/>
  </clipPath>
 </defs>
 <g transform="translate(1401.4 527.92)" fill-rule="evenodd">
  <rect x="-1401.4" y="-527.92" width="1954.3" height="1085.7" clip-path="url(#he)" fill="url(#a)"/>
  <path d="m-1271.4 160.65c-46.374 0.011-86.273 32.797-95.273 78.289-16.624 2.5159-30.847 9.1408-39.34 18.324-20.072-10.896-42.548-16.606-65.387-16.613-47.19 0.067-91.03 24.391-116.06 64.394-3.117-1.0124-6.3731-1.531-9.6504-1.5371-13.305 0.017-25.158 8.4105-29.592 20.955-6.9854-4.3405-15.042-6.65-23.266-6.6699-7.9664 0.017-15.781 2.1833-22.619 6.2695-18.213-25.413-47.545-40.507-78.811-40.555-2.4842 0.01-4.9672 0.1145-7.4433 0.3145-19.602-59.781-75.357-100.23-138.27-100.31-80.476-3e-4 -145.72 65.239-145.71 145.71 7e-4 80.476 65.239 145.71 145.71 145.71 28.162-0.012 55.716-8.1851 79.33-23.529 17.973 16.908 41.707 26.342 66.383 26.387 43.977-0.054 82.432-29.646 93.75-72.141 2.5343 0.4605 5.1039 0.6991 7.6797 0.7129 3.3728-0.018 6.7325-0.422 10.014-1.2031 0.1947 18.51 20.235 34.695 49.094 39.648 24.222 43.246 69.895 70.056 119.46 70.125 57.439-0.076 108.74-35.938 128.55-89.854 10.626 44.279 50.2 75.516 95.736 75.568 28.479-0.027 55.555-12.37 74.254-33.85 19.003 8.8771 44.025 13.826 70.031 13.85 40.063-0.024 76.452-11.678 93.252-29.863 9.9517-4.1736 18.388-11.293 24.174-20.402 2.1287 30.345 17.985 53.282 36.859 53.32 19.712-0.04 35.972-24.99 37.041-56.838 13.405 10.747 30.066 16.615 47.246 16.641 20.479-0.03 40.072-8.3544 54.31-23.074 6.9792 14.123 21.364 23.065 37.117 23.074 22.88-5e-4 41.427-18.548 41.428-41.428 6e-4 -22.88-18.547-41.429-41.428-41.43-5.4436 0.012-10.832 1.0975-15.856 3.1933-2.1-40.211-35.306-71.745-68.693-70.483-33.387 1.2614-16.933-17.414-16.879-36.995 0-38.66-62.68-70-140-70s-140 31.34-150 24.558-53.493-50.274-107.14-50.273z" clip-path="url(#hd)" fill="#fff"/>
  <path d="m736.83 87.257c-46.374 0.011-86.273 32.797-95.274 78.289-16.624 2.5159-30.847 9.1408-39.34 18.324-20.072-10.896-42.548-16.606-65.387-16.613-47.19 0.067-91.03 24.391-116.06 64.394-3.117-1.0124-6.3732-1.531-9.6504-1.5371-13.305 0.017-25.158 8.4105-29.592 20.955-6.9855-4.3405-15.042-6.65-23.266-6.6699-7.9664 0.017-15.781 2.1833-22.619 6.2695-18.213-25.413-47.545-40.507-78.81-40.555-2.4843 0.01-4.9672 0.1145-7.4434 0.3145-19.601-59.781-75.357-100.23-138.27-100.31-80.476-3e-4 -145.72 65.239-145.71 145.71 8e-4 80.476 65.239 145.71 145.71 145.71 28.162-0.012 55.716-8.1851 79.33-23.529 17.973 16.908 41.707 26.342 66.383 26.387 43.977-0.054 82.432-29.646 93.75-72.141 2.5343 0.4605 5.1039 0.6991 7.6797 0.7129 3.3728-0.018 6.7324-0.422 10.014-1.2031 0.1947 18.51 20.235 34.695 49.094 39.648 24.222 43.246 69.895 70.056 119.46 70.125 57.439-0.076 108.74-35.938 128.55-89.854 10.626 44.279 50.2 75.516 95.736 75.568 28.479-0.027 55.555-12.37 74.254-33.85 19.003 8.8771 44.025 13.826 70.031 13.85 40.063-0.024 76.452-11.678 93.252-29.863 9.9517-4.1736 18.387-11.293 24.174-20.402 2.1288 30.345 17.985 53.282 36.859 53.32 19.712-0.04 35.972-24.99 37.041-56.838 13.405 10.747 30.066 16.615 47.246 16.641 20.479-0.03 40.072-8.3544 54.31-23.074 6.9792 14.123 21.364 23.065 37.117 23.074 22.88-5e-4 41.427-18.548 41.428-41.428 6e-4 -22.88-18.547-41.429-41.428-41.43-5.4436 0.012-10.832 1.0975-15.856 3.1933-2.1-40.211-35.306-71.745-68.693-70.483-33.387 1.2614-16.933-17.414-16.879-36.995 0-38.66-62.68-70-140-70s-140 31.34-150 24.558c-10-6.7817-53.493-50.274-107.14-50.273z" clip-path="url(#hc)" fill="#fff"/>
  <path d="m244.48 198.8c-46.374 0.011-86.273 32.797-95.274 78.289-16.624 2.5159-30.847 9.1408-39.34 18.324-20.072-10.896-42.548-16.606-65.387-16.613-47.19 0.067-91.03 24.391-116.06 64.394-3.117-1.0124-6.3732-1.531-9.6504-1.5371-13.305 0.017-25.158 8.4105-29.592 20.955-6.9855-4.3405-15.042-6.65-23.266-6.6699-7.9664 0.017-15.781 2.1833-22.619 6.2695-18.213-25.413-47.545-40.507-78.81-40.555-2.4843 0.01-4.9672 0.1145-7.4434 0.3145-19.601-59.781-75.357-100.23-138.27-100.31-80.476-3e-4 -145.72 65.239-145.71 145.71 8e-4 80.476 65.239 145.71 145.71 145.71 28.162-0.012 55.716-8.1851 79.33-23.529 17.973 16.908 41.707 26.342 66.383 26.387 43.977-0.054 82.432-29.646 93.75-72.141 2.5343 0.4605 5.1039 0.6991 7.6797 0.7129 3.3728-0.018 6.7325-0.422 10.014-1.2031 0.1947 18.51 20.235 34.695 49.094 39.648 24.222 43.246 69.895 70.056 119.46 70.125 57.439-0.076 108.74-35.938 128.55-89.854 10.626 44.279 50.2 75.516 95.736 75.568 28.479-0.027 55.555-12.37 74.254-33.85 19.003 8.8771 44.025 13.826 70.031 13.85 40.063-0.024 76.452-11.678 93.252-29.863 9.9517-4.1736 18.388-11.293 24.174-20.402 2.1288 30.345 17.985 53.282 36.859 53.32 19.712-0.04 35.972-24.99 37.041-56.838 13.405 10.747 30.066 16.615 47.246 16.641 20.479-0.03 40.072-8.3544 54.31-23.074 6.9792 14.123 21.364 23.065 37.117 23.074 22.88-5e-4 41.427-18.548 41.428-41.428 6e-4 -22.88-18.547-41.429-41.428-41.43-5.4436 0.012-10.832 1.0975-15.856 3.1933-2.1-40.211-35.306-71.745-68.693-70.483-33.387 1.2614-16.933-17.414-16.879-36.995 0-38.66-62.68-70-140-70s-140 31.34-150 24.558c-10-6.7817-53.493-50.274-107.14-50.273z" clip-path="url(#hb)" fill="#fff"/>
  <path d="m-464.64 99.81c-46.374 0.011-104.46 30.777-113.46 76.269-16.624 2.5159-30.847 9.1408-39.34 18.324-20.072-10.896-42.548-16.606-65.387-16.613-47.19 0.067-91.03 24.391-116.06 64.394-3.1169-1.0124-6.3731-1.531-9.6503-1.5371-13.305 0.017-25.158 8.4105-29.592 20.955-6.9855-4.3405-15.042-6.65-23.266-6.6699-7.9663 0.017-15.78 2.1833-22.619 6.2695-18.213-25.413-47.545-40.507-78.811-40.555-2.4842 0.01-4.9671 0.1145-7.4433 0.3145-19.602-59.781-75.357-100.23-138.27-100.31-80.476-3e-4 -145.72 65.239-145.71 145.71 8e-4 80.476 65.239 145.71 145.71 145.71 28.161-0.012 55.716-8.1851 79.33-23.529 17.973 16.908 41.707 26.342 66.383 26.387 43.977-0.054 82.432-29.646 93.75-72.141 2.5343 0.4605 5.104 0.6991 7.6797 0.7129 3.3728-0.018 6.7325-0.422 10.014-1.2031 0.1947 18.51 20.235 34.695 49.094 39.648 24.222 43.246 69.895 70.056 119.46 70.125 57.439-0.076 108.74-35.938 128.55-89.854 10.626 44.279 50.2 75.516 95.736 75.568 28.479-0.027 55.555-12.37 74.254-33.85 19.003 8.8771 44.025 13.826 70.031 13.85 40.063-0.024 76.452-11.678 93.252-29.863 9.9517-4.1736 18.388-11.293 24.174-20.402 2.1287 30.345 17.985 53.282 36.859 53.32 19.712-0.04 35.972-24.99 37.041-56.838 13.405 10.747 30.065 16.615 47.246 16.641 20.479-0.03 40.072-8.3544 54.31-23.074 6.9792 14.123 21.364 23.065 37.117 23.074 22.88-5e-4 41.427-18.548 41.428-41.428 6e-4 -22.88-18.547-41.429-41.428-41.43-5.4436 0.012-10.832 1.0975-15.856 3.1933-1.863-35.673-15.579-69.567-55.717-82.4-4.8118-1.5385-7.4409-22.343-10.278-26.541-25.133-37.197-82.257-68.537-159.58-68.537-77.32 0-140 31.34-150 24.558s-35.311-48.254-88.962-48.253z" clip-path="url(#ha)" fill="#fff"/>
  <ellipse cx="437.17" cy="832.65" rx="1437.1" ry="531.43" clip-path="url(#gz)" fill="url(#dl)"/>
  <ellipse cx="-846.07" cy="529.75" rx="637.98" ry="196.55" clip-path="url(#gy)" fill="url(#dm)"/>
  <g transform="matrix(.049362 -.02046 .02046 .049362 -786.02 -142.11)" clip-path="url(#gx)" opacity=".92">
   <path d="m2425.2 325.84c-10.585 136.21-35.731 302.1 27.878 385.39-224.12 112.09-448.24 35.345-672.36 53.018l-54.548-422.24 78.792 224.25 337.39 36.365c94.295-92.189 193.77-158.49 282.84-276.78z" fill="#263238"/>
   <path d="m1732.2 1035-4.0406-299.01c84.853 0 428.3 24.244 428.3 24.244v303.05z" fill="#ffeb62"/>
   <path transform="matrix(12.972 5.3766 -5.3766 12.972 -19214 33999)" d="m503.51-2790.5-3.8496 20.689-0.33008 0.2286 8.1484 20.189 12.654-12.514-7.1836-16.748z" fill="#ffeb62"/>
   <path d="m2155.9 786.36c-92.714 48.837-406.16 10.079-538.24-40.347 69.55-89.042 114.79-268.24 105.46-415.12 0 0 86.258 162.51 163.92 199.77 81.952 39.318 186.6 32.206 272.67 3.0007 107.33-36.417 267.53-209.87 267.53-209.87-64.556 148.37-166 362.74-271.34 462.57z" fill="#d56a00"/>
   <path transform="translate(-680 178.08)" d="m2979.9 643.15c-2.4472-0.0254-5.0511 0.36545-7.7539 1.2148l-2.5098 0.78906c-14.415 4.5301-26.02 20.341-26.02 35.451v158.3l54.549-22.225v-153.22c0-12.277-7.661-20.202-18.266-20.312z" fill="#f57f17" opacity="1"/>
  </g>
  <path d="m-732.56-56.002a16.009 16.009 0 0 0 -1.5919 -0.1628 16.009 16.009 0 0 0 -14.838 8.282 13.214 13.214 0 0 0 -3.9914 -0.8432 13.214 13.214 0 0 0 -12.828 8.0269 9.1479 9.1479 0 0 0 -0.8161 -0.083 9.1479 9.1479 0 0 0 -9.6085 8.6621 9.1479 9.1479 0 0 0 8.6622 9.6086 9.1479 9.1479 0 0 0 6.3944 -2.1688 13.214 13.214 0 0 0 4.4204 1.9868 9.1479 9.1479 0 0 0 8.2089 6.2566 9.1479 9.1479 0 0 0 3.5831 -0.542 9.402 9.402 0 0 0 7.6523 4.6869 9.402 9.402 0 0 0 9.2068 -5.901 10.711 10.711 0 0 0 9.4538 6.917 10.711 10.711 0 0 0 10.124 -5.8979 12.636 12.636 0 0 0 12.138 -11.964 12.636 12.636 0 0 0 -9.1917 -12.805 6.3527 6.3527 0 0 0 -5.9832 -5.6562 6.3527 6.3527 0 0 0 -3.2696 0.7215 6.1911 6.1911 0 0 0 -5.1778 -3.3521 6.1911 6.1911 0 0 0 -2.285 0.3134 16.009 16.009 0 0 0 -10.263 -6.0866zm14.088 17.857a12.636 12.636 0 0 0 -0.8137 1.0258 16.009 16.009 0 0 0 0.1528 -0.8591 6.1911 6.1911 0 0 0 0.6609 -0.1667zm-9.6528 12.419a10.711 10.711 0 0 0 -0.092 0.2704 9.402 9.402 0 0 0 -0.085 -0.1809 16.009 16.009 0 0 0 0.1776 -0.09z" clip-path="url(#gw)" fill="#fff" opacity=".707"/>
  <circle cx="-609.73" cy="-46.43" r="106.12" clip-path="url(#gv)" fill="url(#ep)" opacity=".92"/>
  <path d="m-555.6-45.959 281.99 123.11 87.682-10.956-336.01-115.34z" clip-path="url(#gu)" fill="url(#dn)"/>
  <ellipse cx="-1451.2" cy="665.74" rx="903.08" ry="294.96" clip-path="url(#gt)" fill="url(#do)"/>
  <ellipse cx="68.029" cy="827.36" rx="1238.4" ry="404.06" clip-path="url(#gs)" fill="url(#dp)"/>
  <path d="m-555.78-15.333 6.9119 55.668c15.647-10.968 28.043-25.957 35.878-43.386l-2.3475-13.433z" clip-path="url(#gr)" fill="url(#dq)" opacity=".92"/>
  <path d="m-555.61-46.023v31.303c106.49 4.8958 195.62 79.265 285.41 150.99l-2.762-60.764z" clip-path="url(#gq)" fill="url(#dr)"/>
  <circle cx="-193.09" cy="73.356" r="143.87" clip-path="url(#gp)" fill="url(#eq)"/>
  <ellipse cx="-195.18" cy="562.11" rx="159.13" ry="53.043" clip-path="url(#go)" fill="url(#ds)" opacity=".196"/>
  <path d="m-226.6-130.24c1.1836 15.232 3.9957 33.783-3.1176 43.097 25.063 12.534 50.125 3.9525 75.188 5.9288l6.1-47.218-8.8111 25.078-37.73 4.0666c-10.545-10.309-21.668-17.724-31.63-30.952z" clip-path="url(#gn)" fill="#263238"/>
  <path d="m-151.54-55.13-48.336 4.283 18.979 28.089-0.624 0.056c1.747 7.9945 4.5186 15.884 2.4477 23.863 0 0 14.18-6.1023 21.678-7.7212 8.546-1.8453 16.902-4.853 26.138-2.1784 10.676 1.4552 21.936 4.3927 21.936 4.3927-5.7868-8.0695-10.92-17.772-17.744-23.251l-1.8124-0.095c-3.0003-9.4467-13.682-18.445-22.663-27.439z" clip-path="url(#gm)" fill="url(#dt)"/>
  <path d="m-149.11-50.936 0.4519-33.437c-9.4889 0-47.896 2.7111-47.896 2.7111v33.889z" clip-path="url(#gl)" fill="url(#du)"/>
  <path d="m-217.04-56.84c-23.613 3.6336-52.356 11.246-75.6 26.385-12.691 12.232-23.026 26.691-30.49 42.658 42.199-34.63 62.588-49.545 117.14-64.902z" clip-path="url(#gk)" fill="url(#dv)"/>
  <path d="m-215.49-109.71-6.4149 23.344 0.056 27.994 25.88 10.544-0.3196-34.187-1.3677-0.2945z" clip-path="url(#gj)" fill="url(#dw)"/>
  <path d="m-224.78-85.735 31.8 9.302-24.229-39.588z" clip-path="url(#gi)" fill="url(#dx)"/>
  <path d="m-196.48-78.737c10.368 5.4613 45.42 1.1271 60.19-4.5118-7.7775-9.9573-12.837-29.996-11.794-46.422 0 0-9.646 18.173-18.331 22.34-9.1645 4.3968-20.866 3.6014-30.492 0.3355-12.003-4.0724-29.917-23.47-29.917-23.47 7.2192 16.592 18.563 40.564 30.344 51.728z" clip-path="url(#gh)" fill="url(#dy)"/>
  <path d="m-212.58-74.838c0.2736 0 0.5648 0.041 0.8671 0.1359l0.2806 0.088c1.612 0.5066 2.9097 2.2747 2.9097 3.9644v17.703l-6.1-2.4854v-17.134c0-1.3729 0.8567-2.2592 2.0426-2.2715z" clip-path="url(#gg)" fill="#f57f17"/>
  <circle cx="-181.86" cy="-66.334" r="4.4107" clip-path="url(#gf)" fill="#f57f17"/>
  <circle cx="-158.92" cy="-66.946" r="4.4107" clip-path="url(#ge)" fill="#f57f17"/>
  <path d="m-613.37-152.42a106.12 106.12 0 0 0 -28.608 5.0224c44.847 5.5451 86.104 15.072 87.463 102.82l33.874-4.7391c-4.8531-44.694-19.722-100.54-92.728-103.1z" clip-path="url(#gd)" fill="url(#dz)" opacity=".92"/>
  <path d="m-1152.1-212.85a54.627 56.794 0 0 0 -5.4487 0.3694 54.627 56.794 0 0 0 -45.23 37.723 45.089 46.877 0 0 0 -13.908 -0.5962 45.089 46.877 0 0 0 -38.611 35.645 31.216 32.454 0 0 0 -2.7931 0.1917 31.216 32.454 0 0 0 -27.418 35.969 31.216 32.454 0 0 0 34.597 28.505 31.216 32.454 0 0 0 20.286 -11.358 45.089 46.877 0 0 0 16.001 4.3436 31.216 32.454 0 0 0 31.17 17.047 31.216 32.454 0 0 0 11.749 -4.009 32.083 33.355 0 0 0 28.407 11.884 32.083 33.355 0 0 0 27.633 -26.072 36.549 37.998 0 0 0 35.734 18.622 36.549 37.998 0 0 0 30.721 -26.602 43.119 44.829 0 0 0 34.057 -49.01 43.119 44.829 0 0 0 -38.192 -39.375 21.678 22.537 0 0 0 -23.341 -16.259 21.678 22.537 0 0 0 -10.592 4.4516 21.126 21.964 0 0 0 -19.324 -8.6733 21.126 21.964 0 0 0 -7.5108 2.4438 54.627 56.794 0 0 0 -37.987 -15.241zm57.532 54.163a43.119 44.829 0 0 0 -2.1561 4.0682 54.627 56.794 0 0 0 0.027 -3.0956 21.126 21.964 0 0 0 2.1292 -0.9726zm-25.436 49.136a36.549 37.998 0 0 0 -0.1576 1.0004 32.083 33.355 0 0 0 -0.389 -0.582 54.627 56.794 0 0 0 0.5466 -0.4184z" clip-path="url(#gc)" fill="#fff" opacity=".707"/>
  <path d="m11.417-217.67a31.82 31.82 0 0 0 -3.1641 -0.3234 31.82 31.82 0 0 0 -29.492 16.462 26.264 26.264 0 0 0 -7.9333 -1.676 26.264 26.264 0 0 0 -25.497 15.955 18.183 18.183 0 0 0 -1.6221 -0.1645 18.183 18.183 0 0 0 -19.098 17.217 18.183 18.183 0 0 0 17.217 19.098 18.183 18.183 0 0 0 12.71 -4.3107 26.264 26.264 0 0 0 8.7862 3.9489 18.183 18.183 0 0 0 16.316 12.436 18.183 18.183 0 0 0 7.1219 -1.0773 18.688 18.688 0 0 0 15.21 9.316 18.688 18.688 0 0 0 18.3 -11.729 21.289 21.289 0 0 0 18.791 13.748 21.289 21.289 0 0 0 20.123 -11.723 25.116 25.116 0 0 0 24.126 -23.78 25.116 25.116 0 0 0 -18.27 -25.451 12.627 12.627 0 0 0 -11.892 -11.242 12.627 12.627 0 0 0 -6.4986 1.4339 12.306 12.306 0 0 0 -10.292 -6.6627 12.306 12.306 0 0 0 -4.5417 0.6229 31.82 31.82 0 0 0 -20.4 -12.098zm28.002 35.494a25.116 25.116 0 0 0 -1.6173 2.0388 31.82 31.82 0 0 0 0.3037 -1.7076 12.306 12.306 0 0 0 1.3135 -0.3312zm-19.186 24.684a21.289 21.289 0 0 0 -0.1837 0.5375 18.688 18.688 0 0 0 -0.1691 -0.3593 31.82 31.82 0 0 0 0.3528 -0.1782z" clip-path="url(#gb)" fill="#fff" opacity=".707"/>
  <path d="m-883.54-362.21a120.71 13.571 0 0 0 -78.838 3.3164 80.714 7.8571 0 0 0 -26.877 -0.459 80.714 7.8571 0 0 0 -80.715 7.8574 80.714 7.8571 0 0 0 17.951 4.9356 184.29 14.286 0 0 0 -38.613 4.4199 80 9.2859 0 0 0 -9.3379 -0.07 80 9.2859 0 0 0 -80 9.2851 80 9.2859 0 0 0 3.5136 2.6934 155 4.6429 0 0 0 -82.084 4.0938 155 4.6429 0 0 0 155 4.6425 155 4.6429 0 0 0 20.766 -0.047 172.86 7.8573 0 0 0 -0.053 0.047 172.86 7.8573 0 0 0 172.86 7.8575 172.86 7.8573 0 0 0 108.97 -1.7637 104.29 12.143 0 0 0 53.883 1.7637 104.29 12.143 0 0 0 102.56 -10 52.857 5.0001 0 0 0 0.2989 0 52.857 5.0001 0 0 0 52.857 -5 52.857 5.0001 0 0 0 -52.857 -5 52.857 5.0001 0 0 0 -20.6 0.4003 104.29 12.143 0 0 0 -73.293 -4.6347 184.29 14.286 0 0 0 -30.58 -6.5996 120.71 13.571 0 0 0 5.9004 -4.166 120.71 13.571 0 0 0 -120.71 -13.572z" clip-path="url(#ga)" fill="#fff" opacity=".707"/>
  <path d="m-1013.2-302.21a60.357 8.5714 0 0 0 -60.357 8.5723 60.357 8.5714 0 0 0 0.3535 0.8437 90.685 4.2304 0 0 0 -68.885 4.1016 90.685 4.2304 0 0 0 0.027 0.025 81.317 2.4998 0 0 0 -10.893 -0.025 81.317 2.4998 0 0 0 -81.318 2.5 81.317 2.4998 0 0 0 43.064 2.2031 41.97 4.9995 0 0 0 -1.8437 1.4492 41.97 4.9995 0 0 0 41.971 5 41.97 4.9995 0 0 0 4.8984 -0.037 96.681 7.6916 0 0 0 88.783 4.6523 96.681 7.6916 0 0 0 96.137 -6.9511 54.711 6.5378 0 0 0 38.451 -2.4942 27.73 2.6921 0 0 0 10.807 0.2149 27.73 2.6921 0 0 0 27.73 -2.6914 27.73 2.6921 0 0 0 -27.73 -2.6934 27.73 2.6921 0 0 0 -0.1562 0 54.711 6.5378 0 0 0 -41.037 -5.1953 60.357 8.5714 0 0 0 0.3515 -0.9043 60.357 8.5714 0 0 0 -60.355 -8.5723z" clip-path="url(#fz)" fill="#fff" opacity=".707"/>
  <g transform="matrix(.43547 -.1784 .1784 .43547 -92.436 153.12)" clip-path="url(#fy)">
   <path d="m2699.5-325.59c-10.585 136.21-35.731 302.1 27.878 385.39-224.12 112.09-448.24 35.345-672.36 53.018l-54.548-422.24 78.792 224.25 337.39 36.365c94.295-92.189 193.77-158.49 282.84-276.78z" fill="#263238" stroke="#000" stroke-width="1px"/>
   <path d="m2006.5 383.54-4.0406-299.01c84.853 0 428.3 24.244 428.3 24.244v303.05z" fill="#ffeb62" stroke="#000" stroke-width="1px"/>
   <path d="m2428.5 105.59 225.71-48.571 2.8572 260-231.43 94.286z" fill="#ffeb62" stroke="#000" stroke-width="1px"/>
   <path d="m2426.8 104.74 165.67-254.56 60.609 208.09z" fill="#ffeb62" stroke="#000" stroke-width="1px"/>
   <path d="m2430.2 134.94c-92.714 48.837-406.16 10.079-538.24-40.347 69.55-89.042 114.79-268.24 105.46-415.12 0 0 86.258 162.51 163.92 199.77 81.952 39.318 186.6 32.206 272.67 3.0007 107.33-36.417 267.53-209.87 267.53-209.87-64.556 148.37-166 362.74-271.34 462.57z" fill="#1de9b6" stroke="#000" stroke-width="1px"/>
   <path d="m2574.2 169.8c-2.4472-0.0254-5.0511 0.36545-7.7539 1.2148l-2.5098 0.78906c-14.415 4.5301-26.02 20.341-26.02 35.451v158.3l54.549-22.225v-153.22c0-12.277-7.661-20.202-18.266-20.312z" fill="#f57f17"/>
  </g>
  <path d="m-848.58 59.469a31.82 31.82 0 0 0 -3.1641 -0.3234 31.82 31.82 0 0 0 -29.492 16.462 26.264 26.264 0 0 0 -7.9333 -1.676 26.264 26.264 0 0 0 -25.497 15.955 18.183 18.183 0 0 0 -1.6221 -0.1645 18.183 18.183 0 0 0 -19.098 17.217 18.183 18.183 0 0 0 17.217 19.098 18.183 18.183 0 0 0 12.71 -4.3107 26.264 26.264 0 0 0 8.7862 3.9489 18.183 18.183 0 0 0 16.316 12.436 18.183 18.183 0 0 0 7.1219 -1.0773 18.688 18.688 0 0 0 15.21 9.316 18.688 18.688 0 0 0 18.3 -11.729 21.289 21.289 0 0 0 18.791 13.748 21.289 21.289 0 0 0 20.123 -11.723 25.116 25.116 0 0 0 24.126 -23.78 25.116 25.116 0 0 0 -18.27 -25.451 12.627 12.627 0 0 0 -11.892 -11.242 12.627 12.627 0 0 0 -6.4986 1.4339 12.306 12.306 0 0 0 -10.292 -6.6627 12.306 12.306 0 0 0 -4.5417 0.6229 31.82 31.82 0 0 0 -20.4 -12.098zm28.002 35.494a25.116 25.116 0 0 0 -1.6173 2.0388 31.82 31.82 0 0 0 0.3037 -1.7076 12.306 12.306 0 0 0 1.3135 -0.3312zm-19.186 24.684a21.289 21.289 0 0 0 -0.1837 0.5375 18.688 18.688 0 0 0 -0.1691 -0.3593 31.82 31.82 0 0 0 0.3528 -0.1782z" clip-path="url(#fx)" fill="#fff" opacity=".707"/>
  <path d="m23.487-567.93a253.58 45.503 0 0 0 -165.61 11.12 169.55 26.344 0 0 0 -56.459 -1.5389 169.55 26.344 0 0 0 -169.55 26.345 169.55 26.344 0 0 0 37.709 16.548 387.12 47.899 0 0 0 -81.113 14.819 168.05 31.134 0 0 0 -19.616 -0.2347 168.05 31.134 0 0 0 -168.05 31.132 168.05 31.134 0 0 0 7.3809 9.0307 325.6 15.567 0 0 0 -172.43 13.726 325.6 15.567 0 0 0 325.6 15.566 325.6 15.567 0 0 0 43.621 -0.1576 363.11 26.345 0 0 0 -0.1107 0.1576 363.11 26.345 0 0 0 363.11 26.345 363.11 26.345 0 0 0 228.92 -5.9135 219.07 40.714 0 0 0 113.19 5.9135 219.07 40.714 0 0 0 215.44 -33.529 111.03 16.765 0 0 0 0.6277 0 111.03 16.765 0 0 0 111.03 -16.764 111.03 16.765 0 0 0 -111.03 -16.764 111.03 16.765 0 0 0 -43.272 1.3421 219.07 40.714 0 0 0 -153.96 -15.54 387.12 47.899 0 0 0 -64.238 -22.128 253.58 45.503 0 0 0 12.395 -13.968 253.58 45.503 0 0 0 -253.57 -45.506z" clip-path="url(#fw)" fill="#fff" opacity=".707"/>
  <path d="m153.6-330.78a120.71 13.571 0 0 0 -78.838 3.3164 80.714 7.8571 0 0 0 -26.877 -0.459 80.714 7.8571 0 0 0 -80.715 7.8574 80.714 7.8571 0 0 0 17.951 4.9356 184.29 14.286 0 0 0 -38.613 4.4199 80 9.2859 0 0 0 -9.3379 -0.07 80 9.2859 0 0 0 -80 9.2851 80 9.2859 0 0 0 3.5137 2.6934 155 4.6429 0 0 0 -82.084 4.0938 155 4.6429 0 0 0 155 4.6425 155 4.6429 0 0 0 20.766 -0.047 172.86 7.8573 0 0 0 -0.053 0.047 172.86 7.8573 0 0 0 172.86 7.8575 172.86 7.8573 0 0 0 108.97 -1.7637 104.29 12.143 0 0 0 53.883 1.7637 104.29 12.143 0 0 0 102.56 -10 52.857 5.0001 0 0 0 0.2988 0 52.857 5.0001 0 0 0 52.857 -5 52.857 5.0001 0 0 0 -52.857 -5 52.857 5.0001 0 0 0 -20.6 0.4003 104.29 12.143 0 0 0 -73.293 -4.6347 184.29 14.286 0 0 0 -30.58 -6.5996 120.71 13.571 0 0 0 5.9004 -4.166 120.71 13.571 0 0 0 -120.71 -13.572z" clip-path="url(#fv)" fill="#fff" opacity=".707"/>
  <path d="m218.33-68.858a53.201 53.201 0 0 0 -5.2903 -0.5407 53.201 53.201 0 0 0 -49.31 27.523 43.912 43.912 0 0 0 -13.264 -2.8022 43.912 43.912 0 0 0 -42.63 26.676 30.401 30.401 0 0 0 -2.7122 -0.2751 30.401 30.401 0 0 0 -31.931 28.787 30.401 30.401 0 0 0 28.787 31.931 30.401 30.401 0 0 0 21.25 -7.2073 43.912 43.912 0 0 0 14.69 6.6024 30.401 30.401 0 0 0 27.28 20.792 30.401 30.401 0 0 0 11.908 -1.8012 31.245 31.245 0 0 0 25.43 15.576 31.245 31.245 0 0 0 30.596 -19.61 35.595 35.595 0 0 0 31.417 22.986 35.595 35.595 0 0 0 33.645 -19.6 41.993 41.993 0 0 0 40.338 -39.758 41.993 41.993 0 0 0 -30.546 -42.554 21.112 21.112 0 0 0 -19.884 -18.797 21.112 21.112 0 0 0 -10.866 2.3974 20.574 20.574 0 0 0 -17.207 -11.14 20.574 20.574 0 0 0 -7.5936 1.0415 53.201 53.201 0 0 0 -34.108 -20.228zm46.817 59.344a41.993 41.993 0 0 0 -2.7039 3.4087 53.201 53.201 0 0 0 0.5077 -2.855 20.574 20.574 0 0 0 2.1962 -0.5537zm-32.078 41.27a35.595 35.595 0 0 0 -0.3071 0.8987 31.245 31.245 0 0 0 -0.2829 -0.6008 53.201 53.201 0 0 0 0.59 -0.2979z" clip-path="url(#fu)" fill="#fff" opacity=".707"/>
  <path d="m-360.08-187.65a10.855 10.855 0 0 0 -1.0794 -0.1104 10.855 10.855 0 0 0 -10.061 5.6157 8.9596 8.9596 0 0 0 -2.7064 -0.5717 8.9596 8.9596 0 0 0 -8.698 5.4427 6.2028 6.2028 0 0 0 -0.5533 -0.056 6.2028 6.2028 0 0 0 -6.5152 5.8734 6.2028 6.2028 0 0 0 5.8736 6.5152 6.2028 6.2028 0 0 0 4.3357 -1.4706 8.9596 8.9596 0 0 0 2.9973 1.3472 6.2028 6.2028 0 0 0 5.5661 4.2423 6.2028 6.2028 0 0 0 2.4296 -0.3675 6.3751 6.3751 0 0 0 5.1887 3.178 6.3751 6.3751 0 0 0 6.2427 -4.0012 7.2626 7.2626 0 0 0 6.4102 4.6901 7.2626 7.2626 0 0 0 6.8648 -3.9991 8.5682 8.5682 0 0 0 8.2303 -8.1121 8.5682 8.5682 0 0 0 -6.2326 -8.6825 4.3075 4.3075 0 0 0 -4.0569 -3.8352 4.3075 4.3075 0 0 0 -2.217 0.4892 4.1979 4.1979 0 0 0 -3.5108 -2.2729 4.1979 4.1979 0 0 0 -1.5494 0.2125 10.855 10.855 0 0 0 -6.9591 -4.1271zm9.5524 12.108a8.5682 8.5682 0 0 0 -0.5517 0.6955 10.855 10.855 0 0 0 0.1036 -0.5825 4.1979 4.1979 0 0 0 0.4481 -0.113zm-6.5451 8.4206a7.2626 7.2626 0 0 0 -0.063 0.1833 6.3751 6.3751 0 0 0 -0.058 -0.1226 10.855 10.855 0 0 0 0.1203 -0.061z" clip-path="url(#ft)" fill="#fff" opacity=".707"/>
  <ellipse cx="-658.03" cy="400.58" rx="81.985" ry="37.43" clip-path="url(#fs)" fill="url(#ea)" opacity=".202"/>
  <path d="m-695.27-226.52a7.3839 7.3839 0 0 0 -0.7342 -0.075 7.3839 7.3839 0 0 0 -6.8438 3.82 6.0946 6.0946 0 0 0 -1.8409 -0.3889 6.0946 6.0946 0 0 0 -5.9166 3.7023 4.2193 4.2193 0 0 0 -0.3764 -0.038 4.2193 4.2193 0 0 0 -4.4318 3.9954 4.2193 4.2193 0 0 0 3.9953 4.4317 4.2193 4.2193 0 0 0 2.9493 -1.0003 6.0946 6.0946 0 0 0 2.0389 0.9164 4.2193 4.2193 0 0 0 3.7862 2.8857 4.2193 4.2193 0 0 0 1.6526 -0.25 4.3365 4.3365 0 0 0 3.5296 2.1618 4.3365 4.3365 0 0 0 4.2465 -2.7217 4.9402 4.9402 0 0 0 4.3604 3.1903 4.9402 4.9402 0 0 0 4.6696 -2.7202 5.8283 5.8283 0 0 0 5.5985 -5.5181 5.8283 5.8283 0 0 0 -4.2396 -5.9061 2.9301 2.9301 0 0 0 -2.7597 -2.6088 2.9301 2.9301 0 0 0 -1.508 0.3327 2.8556 2.8556 0 0 0 -2.3882 -1.5461 2.8556 2.8556 0 0 0 -1.0539 0.1446 7.3839 7.3839 0 0 0 -4.7338 -2.8074zm6.4978 8.2364a5.8283 5.8283 0 0 0 -0.3753 0.4731 7.3839 7.3839 0 0 0 0.071 -0.3963 2.8556 2.8556 0 0 0 0.3049 -0.077zm-4.4522 5.7279a4.9402 4.9402 0 0 0 -0.043 0.1247 4.3365 4.3365 0 0 0 -0.039 -0.083 7.3839 7.3839 0 0 0 0.082 -0.041z" clip-path="url(#fr)" fill="#fff" opacity=".707"/>
  <path d="m-719.58-213.76a5.0167 5.0167 0 0 0 -0.4989 -0.051 5.0167 5.0167 0 0 0 -4.6497 2.5954 4.1408 4.1408 0 0 0 -1.2508 -0.2643 4.1408 4.1408 0 0 0 -4.0198 2.5156 2.8667 2.8667 0 0 0 -0.2557 -0.026 2.8667 2.8667 0 0 0 -3.011 2.7146 2.8667 2.8667 0 0 0 2.7145 3.011 2.8667 2.8667 0 0 0 2.0038 -0.6797 4.1408 4.1408 0 0 0 1.3852 0.6226 2.8667 2.8667 0 0 0 2.5724 1.9606 2.8667 2.8667 0 0 0 1.1228 -0.169 2.9463 2.9463 0 0 0 2.398 1.4686 2.9463 2.9463 0 0 0 2.8852 -1.8491 3.3565 3.3565 0 0 0 2.9625 2.1676 3.3565 3.3565 0 0 0 3.1725 -1.8481 3.9598 3.9598 0 0 0 3.8037 -3.7491 3.9598 3.9598 0 0 0 -2.8804 -4.0127 1.9907 1.9907 0 0 0 -1.8749 -1.7724 1.9907 1.9907 0 0 0 -1.0246 0.226 1.9401 1.9401 0 0 0 -1.6226 -1.0505 1.9401 1.9401 0 0 0 -0.716 0.098 5.0167 5.0167 0 0 0 -3.2162 -1.9074zm4.4147 5.5961a3.9598 3.9598 0 0 0 -0.255 0.3214 5.0167 5.0167 0 0 0 0.048 -0.2694 1.9401 1.9401 0 0 0 0.2072 -0.051zm-3.0249 3.8916a3.3565 3.3565 0 0 0 -0.029 0.086 2.9463 2.9463 0 0 0 -0.027 -0.056 5.0167 5.0167 0 0 0 0.056 -0.028z" clip-path="url(#fq)" fill="#fff" opacity=".707"/>
  <g transform="matrix(.08485 0 0 .08485 -828.35 66.341)" clip-path="url(#fp)">
   <g transform="translate(596.94 -33.335)">
    <path transform="rotate(90)" d="m1504.5 442.38c3.7509 0 6.2497 3.0561 6.7707 6.7707 6.0298 42.994 6.3495 87.306 0 133.16-0.5145 3.7155-3.0198 6.7706-6.7707 6.7706s-7.1557-3.0395-6.7707-6.7706c4.5329-43.932 4.9864-88.272 0-133.16-0.4142-3.728 3.0198-6.7707 6.7707-6.7707z" fill="#e65100"/>
    <path d="m-571.59 1365.7c4.5e-4 16.454-12.631 29.792-28.212 29.792-0.41291-0.012-0.82553-0.034-1.2375-0.064v84.938c0 10.994 8.8621 19.363 19.846 19.846 43.165 1.8996 86.066 6.1734 130.13 0 10.888-1.5255 19.846-8.8515 19.846-19.846v-84.924c-0.44465 0.028-0.88988 0.045-1.3353 0.051-15.581 5e-4 -28.212-13.338-28.212-29.792-36.941-4.5504-73.882-3.8636-110.82 0z" fill="#f9a825"/>
    <rect x="-522.5" y="1360.7" width="13.541" height="146.7" ry="6.472" fill="#e65100"/>
   </g>
   <path d="m53.393 1219.4-26.062 106.02 2.1367 0.5254 26.061-106.02-2.1348-0.5254z" color="#000000" color-rendering="auto" fill="#263238" image-rendering="auto" shape-rendering="auto" solid-color="#000000" style="block-progression:tb;isolation:auto;mix-blend-mode:normal;text-decoration-color:#000000;text-decoration-line:none;text-decoration-style:solid;text-indent:0;text-transform:none;white-space:normal"/>
   <path d="m107.63 1219.7-2.1367 0.5273 26.062 105.77 2.1367-0.5273-26.062-105.77z" color="#000000" color-rendering="auto" fill="#263238" image-rendering="auto" shape-rendering="auto" solid-color="#000000" style="block-progression:tb;isolation:auto;mix-blend-mode:normal;text-decoration-color:#000000;text-decoration-line:none;text-decoration-style:solid;text-indent:0;text-transform:none;white-space:normal"/>
   <path d="m78.835-258.7c-247.73-1e-3 -448.55 198.9-448.55 444.26-8.0766 293.07 308.84 526.12 325.03 828.28 7.6e-4 43.273 35.332 78.353 123.52 78.353 88.192 0 129.58-35.08 129.59-78.353 32.827-300.99 318.21-535.21 318.96-828.28-2e-4 -245.36-200.82-444.26-448.55-444.26z" clip-path="url(#fj)" fill="#c51162"/>
   <path d="m-17.711 1105.9-1.9531 1.0098 53.031 102.53 1.9551-1.0117-53.033-102.53z" color="#000000" color-rendering="auto" fill="#263238" image-rendering="auto" shape-rendering="auto" solid-color="#000000" style="block-progression:tb;isolation:auto;mix-blend-mode:normal;text-decoration-color:#000000;text-decoration-line:none;text-decoration-style:solid;text-indent:0;text-transform:none;white-space:normal"/>
   <path d="m36.73 1217.4-40.816 140.52 2.1113 0.6133 40.816-140.52-2.1113-0.6133z" color="#000000" color-rendering="auto" fill="#263238" image-rendering="auto" shape-rendering="auto" solid-color="#000000" style="block-progression:tb;isolation:auto;mix-blend-mode:normal;text-decoration-color:#000000;text-decoration-line:none;text-decoration-style:solid;text-indent:0;text-transform:none;white-space:normal"/>
   <rect transform="matrix(.77056 -.63737 .63737 .77056 0 0)" x="-872.65" y="1038.7" width="6.0609" height="15.657" ry="3.0305" fill="#e65100"/>
   <rect transform="matrix(1 .0025614 -.0025614 1 0 0)" x="28.411" y="1323.3" width="6.0609" height="15.657" ry="3.0305" fill="#e65100"/>
   <path d="m35.471 1104.7-2.1582 0.4277 19.596 98.69 2.1582-0.4278-19.596-98.689z" color="#000000" color-rendering="auto" fill="#263238" image-rendering="auto" shape-rendering="auto" solid-color="#000000" style="block-progression:tb;isolation:auto;mix-blend-mode:normal;text-decoration-color:#000000;text-decoration-line:none;text-decoration-style:solid;text-indent:0;text-transform:none;white-space:normal"/>
   <path d="m124.29 1217.4-2.1133 0.6133 40.816 140.52 2.1133-0.6133-40.816-140.52z" color="#000000" color-rendering="auto" fill="#263238" image-rendering="auto" shape-rendering="auto" solid-color="#000000" style="block-progression:tb;isolation:auto;mix-blend-mode:normal;text-decoration-color:#000000;text-decoration-line:none;text-decoration-style:solid;text-indent:0;text-transform:none;white-space:normal"/>
   <rect transform="matrix(-.77056 -.63737 -.63737 .77056 0 0)" x="-996.72" y="936.11" width="6.0609" height="15.657" ry="3.0305" fill="#e65100"/>
   <rect transform="matrix(-1 .0025614 .0025614 1 0 0)" x="-132.61" y="1323.7" width="6.0609" height="15.657" ry="3.0305" fill="#e65100"/>
   <path d="m129.1 1103.1-23.133 100.2 2.1445 0.4942 23.131-100.2-2.1426-0.496z" color="#000000" color-rendering="auto" fill="#263238" image-rendering="auto" shape-rendering="auto" solid-color="#000000" style="block-progression:tb;isolation:auto;mix-blend-mode:normal;text-decoration-color:#000000;text-decoration-line:none;text-decoration-style:solid;text-indent:0;text-transform:none;white-space:normal"/>
   <path d="m178.31 1103.9-51.518 106.07 1.9785 0.9609 51.518-106.07-1.9785-0.9609z" color="#000000" color-rendering="auto" fill="#263238" image-rendering="auto" shape-rendering="auto" solid-color="#000000" style="block-progression:tb;isolation:auto;mix-blend-mode:normal;text-decoration-color:#000000;text-decoration-line:none;text-decoration-style:solid;text-indent:0;text-transform:none;white-space:normal"/>
   <path d="m75.193-258.67c-246.05 1.938-444.91 200.08-444.91 444.24-8.0766 293.07 308.84 526.12 325.03 828.28 6.4e-4 36.274 24.837 66.785 84.816 75.707l34.625-4.8613c-46.26-452.92-197.24-923.3 0.44137-1343.4z" clip-path="url(#fi)" fill="#0091ea"/>
   <path d="m29.47-256.03c-224.5 24.341-399.19 212.76-399.19 441.59-8.0766 293.07 308.84 526.12 325.03 828.28 2.9e-4 16.4 5.0805 31.619 16.184 44.201l44.668 6.4414c-2.0861-513.56-533.1-921.61 13.309-1320.5z" clip-path="url(#fh)" fill="#b2ff59"/>
   <path d="m109.87-258.07c219.64 419.91 31.812 890.06-9.8691 1342.8l25.806 3.5742c55.998-10.305 82.613-39.727 82.613-74.42 32.827-300.99 318.21-535.21 318.96-828.28-1.9e-4 -237.39-180.93-431.29-417.51-443.63z" clip-path="url(#fg)" fill="#ffea00"/>
   <path d="m136.78-255.02c532.14 412.14 18.918 805.58 16.83 1319.5l35.346-5.0957c13.085-12.836 19.468-28.559 19.469-45.547 32.827-300.99 318.21-535.21 318.96-828.28-1.8e-4 -225.91-170.25-412.43-390.61-440.58z" clip-path="url(#ff)" fill="#ff1744"/>
   <path d="m78.835-258.7c-51.801-2.1e-4 -101.55 8.7031-147.84 24.703a260 65.714 0 0 0 147.76 11.662 260 65.714 0 0 0 147.73 -11.729c-46.238-15.958-95.92-24.637-147.65-24.637z" clip-path="url(#fe)" fill="#33691e"/>
   <rect transform="rotate(90)" x="1202.8" y="-131.31" width="19.193" height="100.99" rx="9.2857" ry="23.525" fill="#004d40"/>
   <path d="m76.771-281.15a388.01 270.83 0 0 0 -388.01 270.83 388.01 270.83 0 0 0 172.26 224.96 245.17 151.52 0 0 1 234.65 -107.78 245.17 151.52 0 0 1 225.78 92.842 388.01 270.83 0 0 0 143.34 -210.02 388.01 270.83 0 0 0 -388.01 -270.83z" clip-path="url(#fd)" fill="url(#ed)" opacity=".512"/>
   <ellipse cx="88.893" cy="365.46" rx="388.01" ry="343.57" clip-path="url(#fc)" fill="url(#ec)"/>
   <path d="m74.751-95.284a470.84 381.2 0 0 0 -470.84 381.2 470.84 381.2 0 0 0 209.03 316.63 297.51 213.27 0 0 1 284.74 -151.7 297.51 213.27 0 0 1 273.97 130.67 470.84 381.2 0 0 0 173.94 -295.6 470.84 381.2 0 0 0 -470.84 -381.2z" clip-path="url(#fb)" fill="url(#ee)" opacity=".51163"/>
   <path d="m-204.68-142.22a381.2 470.84 76.502 0 0 -368.86 480.57 381.2 470.84 76.502 0 0 277.16 259.09 213.27 297.51 76.502 0 1 241.47 -213.97 213.27 297.51 76.502 0 1 296.91 63.116 381.2 470.84 76.502 0 0 100.14 -328.04 381.2 470.84 76.502 0 0 -546.81 -260.77z" clip-path="url(#fa)" fill="url(#ef)" opacity=".337"/>
   <path d="m98.368-150.3a381.2 470.84 76.502 0 0 -368.86 480.57 381.2 470.84 76.502 0 0 277.16 259.09 213.27 297.51 76.502 0 1 241.47 -213.97 213.27 297.51 76.502 0 1 296.91 63.116 381.2 470.84 76.502 0 0 100.14 -328.04 381.2 470.84 76.502 0 0 -546.81 -260.77z" clip-path="url(#ez)" fill="url(#eg)" opacity=".51163"/>
   <ellipse cx="74.608" cy="232.71" rx="465.15" ry="400.71" clip-path="url(#ey)" fill="url(#eh)" opacity=".477"/>
   <ellipse transform="scale(1,-1)" cx="91.751" cy="-649.86" rx="350.87" ry="343.57" clip-path="url(#ex)" fill="url(#ei)" opacity=".31"/>
   <ellipse transform="matrix(.9624 -.27164 .27164 .9624 0 0)" cx="-238.07" cy="337.73" rx="388.01" ry="343.57" clip-path="url(#ew)" fill="url(#ej)" opacity=".248"/>
   <ellipse transform="matrix(.9624 -.27164 .27164 .9624 0 0)" cx="236.22" cy="605.95" rx="388.01" ry="343.57" clip-path="url(#ev)" fill="url(#ek)" opacity=".345"/>
   <ellipse cx="264.06" cy="272.36" rx="646.92" ry="442.86" clip-path="url(#eu)" fill="url(#er)" opacity=".198"/>
   <ellipse cx="315.49" cy="-93.352" rx="646.92" ry="442.86" clip-path="url(#et)" fill="url(#es)" opacity=".345"/>
   <rect x="-45.457" y="1026.1" width="252.54" height="80.812" ry="23.846" fill="#ef6c00"/>
   <rect x="-45.457" y="1026.1" width="252.54" height="80.812" ry="23.846" fill="url(#el)" opacity=".535"/>
  </g>
  <ellipse cx="-849.56" cy="418.35" rx="38.414" ry="12.805" clip-path="url(#fo)" fill="url(#eb)" opacity=".307"/>
  <path d="m-499.48 9.8309a10.855 10.855 0 0 0 -1.0794 -0.1104 10.855 10.855 0 0 0 -10.061 5.6157 8.9596 8.9596 0 0 0 -2.7064 -0.5717 8.9596 8.9596 0 0 0 -8.6979 5.4427 6.2028 6.2028 0 0 0 -0.5534 -0.056 6.2028 6.2028 0 0 0 -6.5151 5.8734 6.2028 6.2028 0 0 0 5.8735 6.5152 6.2028 6.2028 0 0 0 4.3358 -1.4706 8.9596 8.9596 0 0 0 2.9973 1.3472 6.2028 6.2028 0 0 0 5.566 4.2423 6.2028 6.2028 0 0 0 2.4296 -0.3675 6.3751 6.3751 0 0 0 5.1887 3.178 6.3751 6.3751 0 0 0 6.2428 -4.0012 7.2626 7.2626 0 0 0 6.4102 4.6901 7.2626 7.2626 0 0 0 6.8647 -3.9991 8.5682 8.5682 0 0 0 8.2303 -8.1121 8.5682 8.5682 0 0 0 -6.2325 -8.6825 4.3075 4.3075 0 0 0 -4.057 -3.8352 4.3075 4.3075 0 0 0 -2.2169 0.4892 4.1979 4.1979 0 0 0 -3.5109 -2.2729 4.1979 4.1979 0 0 0 -1.5493 0.2125 10.855 10.855 0 0 0 -6.9592 -4.1271zm9.5524 12.108a8.5682 8.5682 0 0 0 -0.5517 0.6955 10.855 10.855 0 0 0 0.1036 -0.5825 4.1979 4.1979 0 0 0 0.4481 -0.113zm-6.5451 8.4206a7.2626 7.2626 0 0 0 -0.063 0.1833 6.3751 6.3751 0 0 0 -0.058 -0.1226 10.855 10.855 0 0 0 0.1204 -0.061z" clip-path="url(#fn)" fill="#fff" opacity=".707"/>
  <path d="m-603.45-1.2169a16.435 16.435 0 0 0 -1.6342 -0.1672 16.435 16.435 0 0 0 -15.232 8.5023 13.565 13.565 0 0 0 -4.0975 -0.8656 13.565 13.565 0 0 0 -13.169 8.2403 9.3912 9.3912 0 0 0 -0.8378 -0.085 9.3912 9.3912 0 0 0 -9.8641 8.8924 9.3912 9.3912 0 0 0 8.8926 9.8641 9.3912 9.3912 0 0 0 6.5645 -2.2265 13.565 13.565 0 0 0 4.5379 2.0397 9.3912 9.3912 0 0 0 8.4271 6.4229 9.3912 9.3912 0 0 0 3.6784 -0.5564 9.6521 9.6521 0 0 0 7.8558 4.8115 9.6521 9.6521 0 0 0 9.4516 -6.0579 10.996 10.996 0 0 0 9.7052 7.1009 10.996 10.996 0 0 0 10.393 -6.0547 12.972 12.972 0 0 0 12.461 -12.282 12.972 12.972 0 0 0 -9.4361 -13.146 6.5217 6.5217 0 0 0 -6.1423 -5.8065 6.5217 6.5217 0 0 0 -3.3565 0.7406 6.3557 6.3557 0 0 0 -5.3155 -3.4412 6.3557 6.3557 0 0 0 -2.3457 0.3218 16.435 16.435 0 0 0 -10.536 -6.2485zm14.462 18.332a12.972 12.972 0 0 0 -0.8353 1.053 16.435 16.435 0 0 0 0.1568 -0.8819 6.3557 6.3557 0 0 0 0.6785 -0.1711zm-9.9094 12.749a10.996 10.996 0 0 0 -0.095 0.2775 9.6521 9.6521 0 0 0 -0.087 -0.1856 16.435 16.435 0 0 0 0.1822 -0.092z" clip-path="url(#fm)" fill="#fff" opacity=".707"/>
  <path d="m-94.869 77.564a34.762 34.762 0 0 0 -3.4566 -0.3536 34.762 34.762 0 0 0 -32.219 17.984 28.692 28.692 0 0 0 -8.6668 -1.8309 28.692 28.692 0 0 0 -27.854 17.429 19.864 19.864 0 0 0 -1.7721 -0.1798 19.864 19.864 0 0 0 -20.864 18.809 19.864 19.864 0 0 0 18.809 20.864 19.864 19.864 0 0 0 13.885 -4.7093 28.692 28.692 0 0 0 9.5984 4.3142 19.864 19.864 0 0 0 17.825 13.586 19.864 19.864 0 0 0 7.7803 -1.1769 20.416 20.416 0 0 0 16.616 10.177 20.416 20.416 0 0 0 19.992 -12.813 23.258 23.258 0 0 0 20.528 15.019 23.258 23.258 0 0 0 21.983 -12.807 27.438 27.438 0 0 0 26.357 -25.978 27.438 27.438 0 0 0 -19.959 -27.805 13.794 13.794 0 0 0 -12.992 -12.282 13.794 13.794 0 0 0 -7.0995 1.5665 13.443 13.443 0 0 0 -11.243 -7.2787 13.443 13.443 0 0 0 -4.9616 0.6806 34.762 34.762 0 0 0 -22.286 -13.216zm30.59 38.775a27.438 27.438 0 0 0 -1.7667 2.2273 34.762 34.762 0 0 0 0.3317 -1.8654 13.443 13.443 0 0 0 1.435 -0.3619zm-20.96 26.966a23.258 23.258 0 0 0 -0.2006 0.587 20.416 20.416 0 0 0 -0.1848 -0.3926 34.762 34.762 0 0 0 0.3855 -0.1946z" clip-path="url(#fl)" fill="#fff"/>
  <path d="m-626.98-309.15a27.747 27.747 0 0 1 2.7591 -0.2819 27.747 27.747 0 0 1 25.717 14.355 22.902 22.902 0 0 1 6.9179 -1.4614 22.902 22.902 0 0 1 22.233 13.912 15.855 15.855 0 0 1 1.4146 -0.1428 15.855 15.855 0 0 1 16.654 15.014 15.855 15.855 0 0 1 -15.014 16.653 15.855 15.855 0 0 1 -11.083 -3.7589 22.902 22.902 0 0 1 -7.6616 3.4436 15.855 15.855 0 0 1 -14.228 10.844 15.855 15.855 0 0 1 -6.2103 -0.9395 16.296 16.296 0 0 1 -13.263 8.1236 16.296 16.296 0 0 1 -15.957 -10.228 18.564 18.564 0 0 1 -16.386 11.988 18.564 18.564 0 0 1 -17.547 -10.222 21.902 21.902 0 0 1 -21.038 -20.736 21.902 21.902 0 0 1 15.931 -22.194 11.011 11.011 0 0 1 10.37 -9.8033 11.011 11.011 0 0 1 5.6668 1.2502 10.731 10.731 0 0 1 8.9743 -5.8099 10.731 10.731 0 0 1 3.9604 0.5434 27.747 27.747 0 0 1 17.789 -10.55zm-24.418 30.951a21.902 21.902 0 0 1 1.4102 1.7778 27.747 27.747 0 0 1 -0.2649 -1.4892 10.731 10.731 0 0 1 -1.1454 -0.2893zm16.73 21.524a18.564 18.564 0 0 1 0.16 0.4686 16.296 16.296 0 0 1 0.1477 -0.3119 27.747 27.747 0 0 1 -0.3077 -0.154z" clip-path="url(#fk)" fill="#fff" opacity=".707"/>
 </g>
</svg>
