<?xml version="1.0" encoding="UTF-8" standalone="no"?>
<svg
   id="cloud1"
   class="colored d-none d-lg-block"
   version="1.1"
   width="110"
   height="55"
   viewBox="0 0 110 55"
   preserveAspectRatio="none"
   xmlns="http://www.w3.org/2000/svg"
   xmlns:svg="http://www.w3.org/2000/svg">
  <defs
     id="defs1" />
  <path
     d="m 5,10 q 5,-80 10,0 z m 5,0 q 5,-100 10,0 m -5,0 q 5,-70 10,0 m -5,0 q 5,-90 10,0 m -5,0 q 5,-70 10,0 m -5,0 q 5,-110 10,0 m -5,0 q 5,-90 10,0 m -5,0 q 5,-70 10,0 m -5,0 q 5,-90 10,0 m -5,0 q 5,-50 10,0 m -5,0 q 5,-80 10,0 m -5,0 q 5,-60 10,0 m -5,0 q 5,-40 10,0 m -5,0 q 5,-50 10,0 m -5,0 q 5,-80 10,0 m -5,0 q 5,-55 10,0 m -5,0 q 5,-70 10,0 m -5,0 q 5,-80 10,0 m -5,0 q 5,-50 10,0 m -5,0 q 5,-75 10,0 m -5,0 q 5,-85 10,0 z"
     id="path1" />
</svg>
