<?xml version="1.0" encoding="UTF-8" standalone="no"?>
<svg
   id="deco-clouds"
   version="1.1"
   width="110"
   height="55"
   viewBox="0 0 110 55"
   preserveAspectRatio="none"
   sodipodi:docname="nuages-vers-bas.svg"
   inkscape:version="1.2.2 (732a01da63, 2022-12-09)"
   xmlns:inkscape="http://www.inkscape.org/namespaces/inkscape"
   xmlns:sodipodi="http://sodipodi.sourceforge.net/DTD/sodipodi-0.dtd"
   xmlns="http://www.w3.org/2000/svg"
   xmlns:svg="http://www.w3.org/2000/svg">
  <defs
     id="defs14" />
  <sodipodi:namedview
     id="namedview12"
     pagecolor="#505050"
     bordercolor="#eeeeee"
     borderopacity="1"
     inkscape:showpageshadow="0"
     inkscape:pageopacity="0"
     inkscape:pagecheckerboard="0"
     inkscape:deskcolor="#505050"
     showgrid="false"
     inkscape:zoom="7.34"
     inkscape:cx="55.108992"
     inkscape:cy="5.0408719"
     inkscape:window-width="1680"
     inkscape:window-height="979"
     inkscape:window-x="-8"
     inkscape:window-y="-6"
     inkscape:window-maximized="1"
     inkscape:current-layer="deco-clouds" />
  <path
     d="m 0,0 q 5,80 10,0 z m 5,0 q 5,100 10,0 m -5,0 q 5,70 10,0 m -5,0 q 5,90 10,0 m -5,0 q 5,70 10,0 m -5,0 q 5,110 10,0 m -5,0 q 5,90 10,0 m -5,0 q 5,70 10,0 m -5,0 q 5,90 10,0 m -5,0 q 5,50 10,0 m -5,0 q 5,80 10,0 m -5,0 q 5,60 10,0 m -5,0 q 5,40 10,0 m -5,0 q 5,50 10,0 m -5,0 q 5,80 10,0 m -5,0 q 5,55 10,0 m -5,0 q 5,70 10,0 m -5,0 q 5,80 10,0 m -5,0 q 5,50 10,0 m -5,0 q 5,75 10,0 m -5,0 q 5,85 10,0 z"
     id="path9" />
</svg>
