<?xml version="1.0" encoding="UTF-8"?>
<svg viewBox="0 0 744.09448819 1052.3622047" xmlns="http://www.w3.org/2000/svg">
 <path d="m415.97 357.97c15.859-43.237-124.77-116.97-82.985-136.33s69.521 106.67 112.76 122.53 49.096-97.853 68.456-56.066-63.984 45.685-79.842 88.922 18.697 210.79-65.248 172.97c-62.781-28.282 103.89-146.4 60.655-162.26s-143.89 56.903-163.24 15.116 133.59-1.652 149.45-44.889z" fill="#333"/>
 <path d="m415.95 351.9c31.174-4.6812 61.89 39.521 94.988 39.764 45.58 0.3347 59.32 39.865 44.249 67.326-9.9692 18.166-40.019 23.803-63.248-61.1-6.9348-25.347-49.92-7.0364-75.988-45.99z" fill="#333"/>
 <path transform="matrix(0 1 1 0 8.447 166.16)" d="m223.2 446.36c-23.027 39.884 102.19 81.287 57.701 93.207s-49.512-61.687-89.396-84.714-65.844 32.689-77.764-11.795 46.244 19.984 69.271-19.9-17.246-135.34 27.239-147.26-35.427 115.74 4.4565 138.77 150.78-86.742 162.7-42.257-131.18 34.069-154.21 73.952z" fill="none" stroke="#fff" stroke-width="16"/>
 <path transform="matrix(0 1 1 0 8.447 166.16)" d="m223.2 446.36c-23.027 39.884 102.19 81.287 57.701 93.207s-49.512-61.687-89.396-84.714-65.844 32.689-77.764-11.795 46.244 19.984 69.271-19.9-17.246-135.34 27.239-147.26-35.427 115.74 4.4565 138.77 150.78-86.742 162.7-42.257-131.18 34.069-154.21 73.952z" fill="#f60"/>
</svg>
