<?xml version='1.0' encoding='utf-8'?>
<svg xmlns="http://www.w3.org/2000/svg" clip-rule="evenodd" fill-rule="evenodd" stroke-linejoin="round" stroke-miterlimit="2" version="1.1" viewBox="0 0 4400 4400"> <g transform="translate(0 -7373.6)"> <g transform="translate(-7700 1373.6)"> <rect x="7700" y="6e3" width="4400" height="4400" fill="none"/> <g transform="matrix(29.965 0 0 29.965 3314 -3643.2)"> <path d="m233.06 463.5c-1.818-0.906-2.715-3.604-2.124-6.389 0.492-2.322 1.772-3.617 3.574-3.617 1.393 0 2.495 0.842 3.233 2.471 0.803 1.771 0.897 4.196 0.218 5.616-0.94 1.963-3.108 2.812-4.901 1.919zm-21.034-0.834c-2.227-1.154-3.474-6.088-3.478-13.766-1e-3 -1.563-0.061-2.809-0.149-3.06-0.143-0.41-0.173-0.424-0.932-0.424-0.687 0-0.819-0.044-1.063-0.354-0.325-0.414-0.359-1.157-0.13-2.858 0.081-0.607 0.109-1.313 0.061-1.569-0.117-0.623-0.418-0.613-2.06 0.074-1.521 0.635-2.541 0.831-3.451 0.661-1.529-0.286-2.13-1.15-2.128-3.058 0-0.643 0.125-1.895 0.276-2.783 0.417-2.447 0.464-3.037 0.309-3.872-0.294-1.592-1.337-3.03-2.703-3.727-0.315-0.161-1.186-0.431-1.936-0.602-2.058-0.467-2.427-0.583-2.912-0.913-1.076-0.732-1.279-1.649-0.817-3.698 0.366-1.624 0.358-1.988-0.05-2.396-0.293-0.292-0.447-0.33-1.352-0.33-0.904 0-1.058-0.038-1.351-0.33-0.563-0.564-0.346-1.386 0.607-2.293 0.643-0.613 1.081-1.375 1.081-1.884 0-0.928-1.261-2.308-2.915-3.191-0.516-0.276-2.269-0.949-3.894-1.497-1.626-0.547-3.209-1.124-3.518-1.282-0.781-0.398-1.518-1.074-1.733-1.59-0.644-1.54 0.426-3.839 2.582-5.553 1.305-1.037 2.817-1.764 4.769-2.292 3.052-0.826 3.392-0.948 3.804-1.359 0.364-0.365 0.394-0.462 0.339-1.119-0.134-1.614-2.336-4.262-4.815-5.789-2.593-1.597-3.17-2.629-2.283-4.083 0.377-0.619 1.12-0.909 3.167-1.236 0.956-0.153 2.405-0.424 3.219-0.603s2.176-0.454 3.027-0.611c2.53-0.466 3.146-0.884 3.145-2.131-1e-3 -1.351-1.337-3.321-4.219-6.218-1.956-1.966-3.062-2.837-6.729-5.302-3.631-2.44-4.521-3.23-5.115-4.539-0.449-0.988-0.279-2.377 0.378-3.104 1.243-1.375 4.318-1.051 8.1 0.852 0.703 0.353 2.67 1.441 4.372 2.416 6.067 3.476 7.428 3.941 9.078 3.099 0.643-0.328 1.25-1.089 1.737-2.179 0.739-1.655 0.893-2.854 1.091-8.517 0.19-5.47 0.322-6.945 0.687-7.699 0.886-1.83 2.959-0.771 3.888 1.987 0.151 0.447 0.456 1.915 0.677 3.262 0.778 4.736 1.799 7.226 2.963 7.226 0.536 0 0.849-0.472 1.323-1.993 0.495-1.587 0.703-1.909 1.23-1.909 0.293 0 0.524 0.145 0.9 0.566 1.9 2.123 2.291 2.347 2.853 1.633 0.721-0.916 0.947-2.8 1.078-8.992 0.097-4.571 0.129-5.052 0.397-5.886 0.389-1.208 1.099-1.984 1.814-1.984 0.646 0 1.13 0.258 1.732 0.925 0.976 1.08 1.392 2.408 1.578 5.041 0.158 2.228 0.214 2.633 0.482 3.465 0.594 1.844 1.902 1.555 4.618-1.018 0.66-0.626 1.363-1.179 1.562-1.229 0.365-0.091 0.536-0.025 1.801 0.688 0.766 0.431 1.241 0.421 2.232-0.049 1.834-0.869 2.598-1.956 4.932-7.015 1.431-3.103 1.921-3.944 2.736-4.695 0.976-0.9 1.814-1.064 2.637-0.519 1.06 0.702 1.455 2.407 1.46 6.289 7e-3 5.031-0.568 9.266-1.68 12.377-0.518 1.45-2.175 4.637-3.426 6.591-1.599 2.499-1.819 3.324-0.971 3.647 0.783 0.299 3.208-0.414 5.407-1.591 2.803-1.499 3.166-1.664 3.732-1.686 1.443-0.058 1.591 1.471 0.329 3.397-0.267 0.407-1.276 1.557-2.243 2.556-2.651 2.739-3.288 3.641-3.1 4.389 0.321 1.279 3.94 0.959 8.886-0.784 4.493-1.584 5.075-1.756 6.153-1.824 1.228-0.078 1.76 0.094 1.988 0.644 0.502 1.214-0.878 2.549-6.474 6.26-5.903 3.915-6.669 4.733-6.55 6.999 0.076 1.449 0.497 2.318 1.635 3.374 1.071 0.995 2.691 1.948 7.56 4.448 5.203 2.671 6.207 3.339 6.816 4.532 0.553 1.085 0.25 2.604-0.712 3.565-0.605 0.605-1.479 0.976-3.353 1.421-0.851 0.203-3.091 0.749-4.977 1.214-1.887 0.466-4.216 1.035-5.177 1.265-2.784 0.668-4.068 1.43-4.384 2.601-0.312 1.161 0.811 3.721 2.295 5.229 0.999 1.016 1.568 1.332 4.934 2.741 4.902 2.053 7.149 3.804 8.481 6.607 0.395 0.832 0.501 1.23 0.549 2.071 0.131 2.263-0.865 3.354-3.069 3.361-1.337 3e-3 -2.318-0.282-5.947-1.732-4.424-1.767-7.13-2.561-8.106-2.378-0.56 0.105-1.011 0.636-1.011 1.191 0 0.223 0.098 0.889 0.218 1.48 0.271 1.337 0.128 1.985-0.528 2.397-0.483 0.304-1.275 0.297-3.016-0.023-0.861-0.158-1.023-0.154-1.432 0.041-0.949 0.453-1.184 2.395-0.625 5.147 0.39 1.918 0.34 3.376-0.149 4.327-0.699 1.356-1.709 1.569-3.95 0.833-1.891-0.621-1.894-0.619-1.988 1.656-0.083 1.996-0.371 3.173-1.008 4.123-1.115 1.659-3.117 1.907-4.632 0.573-0.86-0.757-1.79-2.177-3.053-4.662-1.246-2.452-1.783-3.15-2.422-3.15-1.274 0-1.777 1.776-2.096 7.401-0.23 4.058-0.438 5.726-0.953 7.665-0.684 2.569-1.669 4.42-3.049 5.725-1.378 1.303-2.575 1.579-3.891 0.898zm-10.609-3.41c-1.246-0.495-2.013-2.352-1.843-4.464 0.103-1.286 0.406-2.103 1.049-2.834 0.61-0.694 1.24-0.952 2.087-0.857 1.646 0.186 2.719 2.418 2.34 4.867-0.151 0.971-0.639 2.218-1.05 2.681-0.549 0.619-1.809 0.915-2.583 0.607zm50.764-5.235c-1.758-0.348-3.684-2.052-5.394-4.771-1.306-2.077-1.876-4.494-1.315-5.577 0.917-1.775 4.205-1.486 6.835 0.599 2.019 1.602 3.276 4.596 2.992 7.128-0.162 1.45-0.65 2.211-1.643 2.566-0.578 0.206-0.691 0.21-1.475 0.055zm13.238-5.21c-1.195-0.661-2.24-1.589-3.121-2.77-0.926-1.24-1.299-1.995-1.329-2.689l-0.024-0.559 0.629 0.02c1.451 0.048 3.863 1.895 4.99 3.821 0.58 0.989 0.985 2.148 0.862 2.466-0.148 0.387-1.01 0.262-2.007-0.29v1e-3zm-83.307-6.741c-1.151-0.304-2.126-1.261-2.869-2.817-0.465-0.974-0.493-1.108-0.485-2.312 8e-3 -1.051 0.076-1.457 0.384-2.287 0.554-1.495 1.427-2.811 2.578-3.885 1.785-1.667 3.812-2.413 6.147-2.262 1.403 0.091 1.592 0.208 2.076 1.293 0.531 1.192 0.662 2.528 0.399 4.082-0.619 3.654-2.885 6.936-5.463 7.91-0.813 0.307-2.148 0.441-2.767 0.278zm86.757-5.116c-0.688-0.312-1.147-0.941-1.231-1.684-0.194-1.72 1.745-2.455 3.11-1.179 1.714 1.602 0.251 3.83-1.879 2.863zm-105.49-10.119c-0.697-0.345-1.002-0.877-1.002-1.751 0-1.154 0.859-2.249 2.273-2.9 1.354-0.622 3.512-0.888 4.647-0.573 1.118 0.31 1.369 1.462 0.638 2.924-0.845 1.691-2.533 2.581-4.903 2.584-0.829 1e-3 -1.21-0.064-1.653-0.284zm96.46-8.66c-1.548-0.431-2.514-1.159-3.089-2.33-0.735-1.497-0.405-3.32 0.796-4.406 1.11-1.003 2.684-1.477 4.547-1.371 0.87 0.049 1.307 0.147 1.817 0.407 1.342 0.683 2.233 1.944 2.503 3.542 0.312 1.846-0.318 3.269-1.74 3.932-0.68 0.317-0.95 0.36-2.446 0.39-1.156 0.022-1.902-0.029-2.388-0.164zm13.523-9.551c-2.365-0.598-4.14-2.419-4.14-4.247 0-0.644 0.046-0.744 0.572-1.267 0.892-0.886 1.814-1.176 3.977-1.25 2.773-0.096 4.301 0.311 5.259 1.4 1.21 1.374 1.132 3.558-0.162 4.544-0.931 0.711-1.669 0.932-3.256 0.975-0.973 0.025-1.743-0.026-2.25-0.155zm-104.06-2.278c-0.5-0.226-0.976-0.926-0.977-1.437-1e-3 -0.471 0.451-1.021 0.924-1.125 0.495-0.108 1.419 0.259 1.769 0.703 0.334 0.425 0.349 1.247 0.029 1.641-0.303 0.375-1.159 0.482-1.745 0.218zm95.441-15.871c-1.055-0.227-1.499-0.575-1.553-1.218-0.037-0.446 0.027-0.571 0.546-1.069 1.023-0.98 3.514-2.038 6.425-2.728 1.93-0.457 5.353-0.591 6.514-0.253 2.77 0.805 1.292 2.953-2.949 4.285-3.168 0.994-6.984 1.412-8.983 0.983zm-91.006-1.575c-2.504-0.417-6-2.467-6.582-3.86-0.168-0.402-0.165-0.494 0.029-0.79 0.34-0.518 1.063-0.749 2.553-0.816 2.524-0.112 4.616 0.622 6.175 2.165 2.366 2.344 1.349 3.888-2.175 3.301zm94.674-13.554c-0.731-0.242-1.209-0.573-1.29-0.896-0.13-0.52 0.047-1.177 0.502-1.865 0.766-1.156 2.069-1.799 3.915-1.93 1.793-0.127 2.659 0.415 2.659 1.666 0 0.963-1.193 2.13-2.802 2.742-0.785 0.298-2.457 0.456-2.984 0.283zm-11.738-10.11c-1.784-0.452-2.655-1.623-2.655-3.568 0-2.027 1.044-4.223 2.881-6.06 1.731-1.732 3.652-2.633 5.661-2.656 2.01-0.023 3.337 0.787 3.986 2.434 0.429 1.089 0.433 3.116 9e-3 4.27-0.881 2.398-3.187 4.434-6.013 5.31-1.061 0.329-3.081 0.47-3.87 0.27h1e-3zm-90.357-0.481c-3.105-0.834-5.53-3.611-6.394-7.319-0.265-1.14-0.264-3.576 2e-3 -4.706 1.046-4.438 4.923-6.51 9.326-4.986 4.341 1.504 6.859 5.207 6.899 10.15 0.013 1.628-0.184 2.69-0.704 3.792-0.716 1.514-2.324 2.647-4.375 3.082-1.196 0.253-3.79 0.246-4.754-0.012v-1e-3zm4.378-9.176c-0.2-1.455-1.115-2.636-2.044-2.636-0.453 0-1.536 0.424-1.536 0.602 0 0.057 0.213 0.174 0.474 0.26 0.743 0.245 1.24 0.739 1.34 1.331 0.08 0.475 0.154 0.551 0.845 0.864 0.417 0.188 0.813 0.308 0.881 0.266s0.086-0.351 0.04-0.687zm19.187 3.073c-1.211-0.437-2.582-1.465-4.476-3.362-3.146-3.149-4.679-5.351-4.808-6.906-0.071-0.858 0.14-1.104 0.923-1.073 2.794 0.112 9.652 7.292 10.032 10.504 0.07 0.585 0.043 0.684-0.237 0.88-0.396 0.277-0.557 0.272-1.434-0.044v1e-3zm22.161-2.389c-1.619-1.126-2.567-5.294-1.624-7.141 0.976-1.914 2.707-0.906 3.307 1.926 0.232 1.093 0.267 3.668 0.06 4.412-0.269 0.97-1.011 1.312-1.743 0.803zm42.173-5.251c0.051-0.277 0.273-0.873 0.494-1.323 0.839-1.716 2.943-3.704 2.94-2.78-3e-3 1.038-1.483 3.362-2.742 4.305-0.613 0.46-0.803 0.404-0.692-0.202zm-53.941-8.156c-0.369-0.174-1.205-0.792-1.856-1.374-0.929-0.83-1.276-1.246-1.614-1.932-0.399-0.809-0.431-0.975-0.428-2.223 4e-3 -2.144 0.504-3.232 1.473-3.204 1.702 0.048 3.935 3.615 4.196 6.704 0.164 1.942-0.452 2.648-1.771 2.029zm31.586-1.731c-1.701-1.86-1.878-9.886-0.292-13.243 0.386-0.817 0.686-1.067 1.091-0.911 0.354 0.135 0.909 1.347 1.211 2.644 0.257 1.102 0.293 1.655 0.299 4.615 5e-3 2.717-0.039 3.565-0.227 4.409-0.528 2.368-1.322 3.316-2.082 2.486zm12.134-3.581c-1.848-0.839-2.951-4.29-2.28-7.135 0.699-2.965 3.665-5.267 6.004-4.66 1.238 0.321 2.162 1.363 2.672 3.014 0.741 2.397-0.136 5.217-2.344 7.534-1.263 1.326-2.823 1.806-4.052 1.247zm2.564-4.33c0.268-0.296 0.435-1.708 0.276-2.34-0.13-0.519-0.604-0.882-1.149-0.879-0.826 3e-3 -0.863 0.079-0.83 1.697 0.017 0.799 0.095 1.531 0.174 1.626 0.236 0.284 1.24 0.216 1.529-0.104zm-27.734 3.74c-0.875-0.588-1.613-1.596-1.944-2.656-0.403-1.29-0.62-4.023-0.435-5.483 0.225-1.787 0.972-3.195 1.878-3.539 0.535-0.204 1.363-0.146 1.91 0.133 1.769 0.903 2.521 3.426 2.178 7.305-0.196 2.224-0.54 3.317-1.289 4.099-0.724 0.755-1.329 0.793-2.298 0.142v-1e-3z" fill-rule="nonzero"/> </g> </g> </g> </svg>